<svg xmlns="http://www.w3.org/2000/svg" data-name="Layer 1" viewBox="0 0 92 182"><g data-name="Mob v"><g fill="none" stroke="#4c4644" data-name="Mob icon"><path stroke-linecap="square" d="M11.5 40.5l12-12M12.5 50.5l22-22"/><rect width="91" height="181" x=".5" y=".5" rx="12" ry="12"/><path d="M28 8.5h36a2.5 2.5 0 0 1 2.5 2.5 2.5 2.5 0 0 1-2.5 2.5H28a2.5 2.5 0 0 1-2.5-2.5A2.5 2.5 0 0 1 28 8.5zM17 8.5a2.5 2.5 0 0 1 2.5 2.5 2.5 2.5 0 0 1-2.5 2.5 2.5 2.5 0 0 1-2.5-2.5A2.5 2.5 0 0 1 17 8.5zM46 158.5a8.5 8.5 0 0 1 8.5 8.5 8.5 8.5 0 0 1-8.5 8.5 8.5 8.5 0 0 1-8.5-8.5 8.5 8.5 0 0 1 8.5-8.5zM5.5 22.5h81v131h-81z"/></g></g></svg>