<svg width="23" height="26" viewBox="0 0 23 26" fill="none" xmlns="http://www.w3.org/2000/svg">
<path d="M6.87386 0.476942L6.82159 1.32484C6.79545 1.61631 6.79545 1.85478 6.76932 2.06675C6.74318 2.41121 6.71705 3.25911 6.24659 3.25911C6.24659 3.25911 6.24659 3.25911 6.22045 3.25911C6.16818 3.25911 6.11591 3.2856 6.11591 3.3386V3.84204V3.86853C6.11591 3.92153 6.14205 3.97452 6.22045 3.97452C6.22045 3.97452 6.24659 3.97452 6.27273 3.97452C6.6125 3.97452 6.9 3.94802 7.16136 3.55057C7.23977 3.41809 7.31818 3.2856 7.37045 3.12662C7.42273 2.96764 7.475 2.78216 7.50114 2.59669C7.52727 2.41121 7.55341 2.19924 7.57955 1.96076C7.60568 1.72229 7.60568 1.48382 7.63182 1.19236L7.65795 0.794904H8.72955V3.86853C8.72955 3.92153 8.78182 3.97452 8.83409 3.97452H9.46136C9.53977 3.97452 9.56591 3.92153 9.56591 3.86853V0.370956C9.56591 0.211975 9.43523 0.105988 9.27841 0.105988H7.16136C7.00455 0.105988 6.9 0.238472 6.9 0.370956C6.87386 0.397453 6.87386 0.423948 6.87386 0.476942ZM0.261364 4.00102H1.69886C2.40455 4.02751 3.00568 3.52408 3.00568 2.78216C3.00568 2.72917 3.00568 2.64968 2.97955 2.57019C2.84886 1.96076 2.37841 1.53681 1.77727 1.53681H0.836364V0.821401H2.50909C2.56136 0.821401 2.61364 0.768407 2.61364 0.715413V0.211974C2.61364 0.132483 2.5875 0.0794896 2.50909 0.0794896H0.2875C0.0522727 0.0794896 0 0.23847 0 0.344458V3.73605C0 3.89503 0.104545 4.00102 0.261364 4.00102ZM17.825 3.89503V2.59669H18.7398C19.367 2.59669 19.9682 2.06675 19.942 1.32484C19.942 1.13936 19.8898 0.980382 19.8375 0.821401C19.6807 0.476942 19.4193 0.238471 19.0795 0.158981C18.9489 0.105987 18.792 0.105988 18.6614 0.105988H17.2761C17.1193 0.105988 17.0148 0.211975 16.9886 0.370956C16.9886 0.397453 16.9886 0.423948 16.9886 0.450445V3.92153C16.9886 3.97452 17.0409 4.02751 17.0932 4.02751H17.7466C17.7727 4.02751 17.825 4.00102 17.825 3.97452C17.825 3.94802 17.825 3.92153 17.825 3.89503ZM19.0795 1.35134C19.0795 1.6163 18.8705 1.85478 18.583 1.85478H17.825V0.821401H18.5307C18.8443 0.821401 19.0795 1.05987 19.0795 1.35134ZM15.6557 3.20611L15.8648 3.92153C15.8909 4.00102 15.917 4.00102 15.9693 4.00102H16.675C16.7273 4.00102 16.7795 3.94802 16.7795 3.86853L15.6295 0.397452C15.5773 0.238472 15.4989 0.0794896 15.2898 0.0794896H14.7932C14.6886 0.0794896 14.6102 0.105987 14.5318 0.185477C14.5057 0.238471 14.4795 0.291466 14.4534 0.370956L13.3034 3.84204C13.2773 3.92153 13.3295 3.97452 13.3818 3.97452H14.0614C14.0875 3.97452 14.1398 3.97452 14.1659 3.92153C14.1659 3.89503 14.1659 3.89503 14.192 3.86853L14.4011 3.15312H15.6557V3.20611ZM14.5841 2.5172L14.7932 1.80178L15.0023 1.00688H15.0284L15.2375 1.80178L15.4466 2.5172H14.5841ZM12.2841 1.93427V1.90777C12.4148 1.82828 12.4932 1.74879 12.5716 1.6163C12.65 1.51032 12.7023 1.35134 12.7545 1.19236L13.0159 0.185477C13.0159 0.132484 12.9898 0.0794896 12.9114 0.0794896H12.3102C12.2841 0.0794896 12.258 0.0794896 12.258 0.0794896C12.2318 0.0794896 12.2318 0.105988 12.2057 0.132484L11.9705 1.05987C11.9443 1.16586 11.892 1.27185 11.8659 1.32484C11.8136 1.40433 11.7614 1.43083 11.7091 1.48382C11.6568 1.51032 11.5784 1.53681 11.5261 1.53681C11.4739 1.53681 11.3955 1.56331 11.3432 1.53681H10.8989V0.105988C10.8989 0.0529944 10.8466 4.04309e-07 10.7943 4.04309e-07H10.1409C10.0886 4.04309e-07 10.0364 0.0529928 10.0364 0.0794896V3.81554C10.0364 3.86853 10.0886 3.89503 10.1409 3.89503H10.7682C10.8205 3.89503 10.8727 3.86853 10.8727 3.81554V2.17274H11.317C11.4477 2.17274 11.5523 2.17274 11.6307 2.19923C11.7091 2.22573 11.7875 2.27872 11.8398 2.33172C11.892 2.41121 11.9443 2.4907 11.9705 2.62318L12.3102 3.84204C12.3364 3.89503 12.3625 3.92153 12.3886 3.92153H13.0682C13.1466 3.92153 13.1727 3.84204 13.1727 3.81554L12.833 2.5172C12.8068 2.43771 12.7807 2.35822 12.7545 2.27873C12.7284 2.19923 12.7023 2.14624 12.65 2.09325C12.6239 2.04025 12.5716 1.98726 12.4932 1.93427C12.4409 2.01376 12.3625 1.96076 12.2841 1.93427ZM5.95909 3.86853V3.36509C5.95909 3.3386 5.93295 3.25911 5.85455 3.25911H4.36477C4.28636 3.25911 4.10341 3.20611 4.10341 2.96764V2.22573H5.69773C5.77614 2.22573 5.80227 2.17274 5.80227 2.14624V1.6163C5.80227 1.56331 5.77614 1.51032 5.69773 1.51032H4.12955V1.08637C4.12955 0.900891 4.28636 0.821401 4.39091 0.821401H5.88068C5.95909 0.821401 5.98523 0.768407 5.98523 0.715413V0.185477C5.98523 0.132484 5.93295 0.0794896 5.88068 0.0794896H4.33864C3.76364 0.0794896 3.29318 0.582929 3.29318 1.11287V2.96764C3.29318 3.52407 3.76364 4.00102 4.3125 4.00102H5.90682C5.95909 4.00102 6.01136 3.94802 6.01136 3.89503C5.95909 3.89503 5.95909 3.89503 5.95909 3.86853ZM21.9284 0.821401V3.92153C21.9284 3.97452 21.8761 4.00102 21.8239 4.00102H21.1705C21.1182 4.00102 21.0659 3.97452 21.0659 3.92153V0.821401H20.0727C20.0205 0.821401 19.9943 0.768407 19.9943 0.715413V0.185477C19.9943 0.132484 20.0205 0.0794896 20.0727 0.0794896C21.0136 0.0794896 21.9807 0.0794896 22.9216 0.0794896C22.9739 0.0794896 23 0.132484 23 0.185477V0.715413C23 0.768407 22.9739 0.821401 22.9216 0.821401H21.9284ZM2.16932 2.72917C2.16932 3.04713 1.93409 3.25911 1.64659 3.25911H0.8625V2.22573H1.67273C1.93409 2.22573 2.14318 2.43771 2.16932 2.72917Z" transform="translate(0 21.9724)" fill="#265B8F"/>
<path d="M13.3622 16.4346L12.0815 18.7399V17.733L13.3622 16.4346ZM15.8974 7.37274L12.9963 10.3139C12.9179 10.3934 12.9179 10.5259 12.9963 10.6318L14.4077 12.0627L16.394 12.2746H12.3168C12.1861 12.2746 12.1077 12.3806 12.1077 12.4866V14.4474L13.3884 16.1167L10.4872 13.1755C10.4088 13.096 10.2781 13.096 10.1736 13.1755L8.81449 14.5799L8.55312 16.6731V12.4866C8.55312 12.3541 8.44858 12.2746 8.34403 12.2746H6.27926L4.76335 13.5465L7.63835 10.6053C7.71676 10.5259 7.71676 10.3934 7.63835 10.2874L6.17472 8.80357L4.21449 8.61809H8.3179C8.44858 8.61809 8.52699 8.5121 8.52699 8.40611V6.41885L7.24631 4.80255L10.1474 7.74369C10.2259 7.82318 10.3565 7.82318 10.4611 7.74369L11.8986 6.28637L12.1077 4.24611V8.40611C12.1077 8.5386 12.2122 8.61809 12.3168 8.61809H14.3554L15.8974 7.37274ZM16.6293 14.2884V12.4866L17.3611 15.0303L16.6293 14.2884ZM20.5759 11.7977L17.4395 8.64458L16.1849 7.37274L18.4588 8.64458C18.5895 8.64458 18.6679 8.5386 18.6679 8.43261V4.24611C18.6679 4.11363 18.5634 4.03414 18.4588 4.03414H14.1202L14.8259 3.31873L14.1202 4.03414H12.3168L14.8259 3.31873C14.9043 3.23923 14.9043 3.10675 14.8259 3.00076L11.9247 0.0596178C11.8463 -0.0198726 11.7156 -0.0198726 11.6111 0.0596178L8.52699 3.18624L7.22017 4.53758L8.52699 2.17936C8.52699 2.04688 8.42244 1.96739 8.3179 1.96739H4.21449C4.08381 1.96739 4.0054 2.07338 4.0054 2.17936V6.63083V8.43261L3.27358 5.88892C3.19517 5.80943 3.06449 5.80943 2.95994 5.88892L0.0588068 8.80357C-0.0196023 8.88306 -0.0196023 9.01554 0.0588068 9.12153L4.42358 13.5465L2.14972 12.2746C2.01903 12.2746 1.94062 12.3806 1.94062 12.4866V16.6466C1.94062 16.7791 2.04517 16.8586 2.14972 16.8586H6.51449H8.3179L5.80881 17.574C5.7304 17.6535 5.7304 17.786 5.80881 17.892L8.73608 20.8331C8.81449 20.9126 8.94517 20.9126 9.04972 20.8331L12.1077 17.733V18.7399C12.1077 18.8724 12.2122 18.9518 12.3168 18.9518H16.4202C16.5508 18.9518 16.6293 18.8459 16.6293 18.7399V14.2884L17.3611 15.0303C17.4395 15.1098 17.5702 15.1098 17.6747 15.0303L20.5759 12.0892C20.6543 12.0097 20.6543 11.8772 20.5759 11.7977Z" transform="translate(1.1958)" fill="#265B8F"/>
</svg>
