<svg width="24" height="28" viewBox="0 0 24 28" fill="none" xmlns="http://www.w3.org/2000/svg">
<path d="M7.17273 0.495279L7.11818 1.37578C7.09091 1.67845 7.09091 1.92609 7.06364 2.14621C7.03636 2.50392 7.00909 3.38441 6.51818 3.38441C6.51818 3.38441 6.51818 3.38441 6.49091 3.38441C6.43636 3.38441 6.38182 3.41193 6.38182 3.46696V3.98976V4.01727C6.38182 4.0723 6.40909 4.12733 6.49091 4.12733C6.49091 4.12733 6.51818 4.12733 6.54545 4.12733C6.9 4.12733 7.2 4.09982 7.47273 3.68709C7.55455 3.54951 7.63636 3.41193 7.69091 3.24684C7.74545 3.08174 7.8 2.88913 7.82727 2.69652C7.85455 2.50392 7.88182 2.28379 7.90909 2.03615C7.93636 1.78851 7.93636 1.54087 7.96364 1.2382L7.99091 0.825467H9.10909V4.01727C9.10909 4.0723 9.16364 4.12733 9.21818 4.12733H9.87273C9.95455 4.12733 9.98182 4.0723 9.98182 4.01727V0.385219C9.98182 0.220125 9.84545 0.110063 9.68182 0.110063H7.47273C7.30909 0.110063 7.2 0.247641 7.2 0.385219C7.17273 0.412734 7.17273 0.440248 7.17273 0.495279ZM0.272727 4.15485H1.77273C2.50909 4.18236 3.13636 3.65957 3.13636 2.88913C3.13636 2.8341 3.13636 2.75156 3.10909 2.66901C2.97273 2.03615 2.48182 1.5959 1.85455 1.5959H0.872727V0.852982H2.61818C2.67273 0.852982 2.72727 0.797951 2.72727 0.74292V0.220124C2.72727 0.137577 2.7 0.0825458 2.61818 0.0825458H0.3C0.0545455 0.0825458 0 0.247639 0 0.357701V3.87969C0 4.04479 0.109091 4.15485 0.272727 4.15485ZM18.6 4.04479V2.69652H19.5545C20.2091 2.69652 20.8364 2.14621 20.8091 1.37578C20.8091 1.18317 20.7545 1.01808 20.7 0.852982C20.5364 0.49528 20.2636 0.24764 19.9091 0.165093C19.7727 0.110062 19.6091 0.110063 19.4727 0.110063H18.0273C17.8636 0.110063 17.7545 0.220125 17.7273 0.385219C17.7273 0.412734 17.7273 0.440249 17.7273 0.467764V4.0723C17.7273 4.12733 17.7818 4.18236 17.8364 4.18236H18.5182C18.5455 4.18236 18.6 4.15485 18.6 4.12733C18.6 4.09982 18.6 4.0723 18.6 4.04479ZM19.9091 1.40329C19.9091 1.67845 19.6909 1.92609 19.3909 1.92609H18.6V0.852982H19.3364C19.6636 0.852982 19.9091 1.10062 19.9091 1.40329ZM16.3364 3.32938L16.5545 4.0723C16.5818 4.15485 16.6091 4.15485 16.6636 4.15485H17.4C17.4545 4.15485 17.5091 4.09982 17.5091 4.01727L16.3091 0.412734C16.2545 0.24764 16.1727 0.0825458 15.9545 0.0825458H15.4364C15.3273 0.0825458 15.2455 0.110062 15.1636 0.192609C15.1364 0.24764 15.1091 0.302672 15.0818 0.385219L13.8818 3.98976C13.8545 4.0723 13.9091 4.12733 13.9636 4.12733H14.6727C14.7 4.12733 14.7545 4.12733 14.7818 4.0723C14.7818 4.04479 14.7818 4.04479 14.8091 4.01727L15.0273 3.27435H16.3364V3.32938ZM15.2182 2.61398L15.4364 1.87106L15.6545 1.04559H15.6818L15.9 1.87106L16.1182 2.61398H15.2182ZM12.8182 2.00864V1.98112C12.9545 1.89857 13.0364 1.81603 13.1182 1.67845C13.2 1.56839 13.2545 1.40329 13.3091 1.2382L13.5818 0.192609C13.5818 0.137577 13.5545 0.0825458 13.4727 0.0825458H12.8455C12.8182 0.0825458 12.7909 0.0825458 12.7909 0.0825458C12.7636 0.0825458 12.7636 0.110063 12.7364 0.137578L12.4909 1.10062C12.4636 1.21069 12.4091 1.32075 12.3818 1.37578C12.3273 1.45833 12.2727 1.48584 12.2182 1.54087C12.1636 1.56839 12.0818 1.5959 12.0273 1.5959C11.9727 1.5959 11.8909 1.62342 11.8364 1.5959H11.3727V0.110063C11.3727 0.055032 11.3182 4.19854e-07 11.2636 4.19854e-07H10.5818C10.5273 4.19854e-07 10.4727 0.0550303 10.4727 0.0825458V3.96224C10.4727 4.01727 10.5273 4.04479 10.5818 4.04479H11.2364C11.2909 4.04479 11.3455 4.01727 11.3455 3.96224V2.25628H11.8091C11.9455 2.25628 12.0545 2.25628 12.1364 2.28379C12.2182 2.31131 12.3 2.36634 12.3545 2.42137C12.4091 2.50392 12.4636 2.58646 12.4909 2.72404L12.8455 3.98976C12.8727 4.04479 12.9 4.0723 12.9273 4.0723H13.6364C13.7182 4.0723 13.7455 3.98976 13.7455 3.96224L13.3909 2.61398C13.3636 2.53143 13.3364 2.44888 13.3091 2.36634C13.2818 2.28379 13.2545 2.22876 13.2 2.17373C13.1727 2.1187 13.1182 2.06367 13.0364 2.00864C12.9818 2.09118 12.9 2.03615 12.8182 2.00864ZM6.21818 4.01727V3.49448C6.21818 3.46696 6.19091 3.38441 6.10909 3.38441H4.55455C4.47273 3.38441 4.28182 3.32938 4.28182 3.08174V2.31131H5.94545C6.02727 2.31131 6.05455 2.25628 6.05455 2.22876V1.67845C6.05455 1.62342 6.02727 1.56839 5.94545 1.56839H4.30909V1.12814C4.30909 0.935529 4.47273 0.852982 4.58182 0.852982H6.13636C6.21818 0.852982 6.24545 0.797951 6.24545 0.74292V0.192609C6.24545 0.137577 6.19091 0.0825458 6.13636 0.0825458H4.52727C3.92727 0.0825458 3.43636 0.605342 3.43636 1.15565V3.08174C3.43636 3.65957 3.92727 4.15485 4.5 4.15485H6.16364C6.21818 4.15485 6.27273 4.09982 6.27273 4.04479C6.21818 4.04479 6.21818 4.04479 6.21818 4.01727ZM22.8818 0.852982V4.0723C22.8818 4.12733 22.8273 4.15485 22.7727 4.15485H22.0909C22.0364 4.15485 21.9818 4.12733 21.9818 4.0723V0.852982H20.9455C20.8909 0.852982 20.8636 0.797951 20.8636 0.74292V0.192609C20.8636 0.137577 20.8909 0.0825458 20.9455 0.0825458C21.9273 0.0825458 22.9364 0.0825458 23.9182 0.0825458C23.9727 0.0825458 24 0.137577 24 0.192609V0.74292C24 0.797951 23.9727 0.852982 23.9182 0.852982H22.8818ZM2.26364 2.8341C2.26364 3.16429 2.01818 3.38441 1.71818 3.38441H0.9V2.31131H1.74545C2.01818 2.31131 2.23636 2.53143 2.26364 2.8341Z" transform="translate(0 22.8198)" fill="#616161"/>
<path d="M13.9432 17.0665L12.6068 19.4604V18.4148L13.9432 17.0665ZM16.5886 7.65621L13.5614 10.7104C13.4795 10.793 13.4795 10.9306 13.5614 11.0406L15.0341 12.5265L17.1068 12.7466H12.8523C12.7159 12.7466 12.6341 12.8566 12.6341 12.9667V15.0029L13.9705 16.7363L10.9432 13.6821C10.8614 13.5996 10.725 13.5996 10.6159 13.6821L9.19773 15.1404L8.925 17.3142V12.9667C8.925 12.8291 8.81591 12.7466 8.70682 12.7466H6.55227L4.97045 14.0673L7.97045 11.0131C8.05227 10.9306 8.05227 10.793 7.97045 10.6829L6.44318 9.14205L4.39773 8.94944H8.67955C8.81591 8.94944 8.89773 8.83938 8.89773 8.72931V6.66565L7.56136 4.9872L10.5886 8.04142C10.6705 8.12397 10.8068 8.12397 10.9159 8.04142L12.4159 6.52807L12.6341 4.40937V8.72931C12.6341 8.86689 12.7432 8.94944 12.8523 8.94944H14.9795L16.5886 7.65621ZM17.3523 14.8378V12.9667L18.1159 15.6082L17.3523 14.8378ZM21.4705 12.2513L18.1977 8.97695L16.8886 7.65621L19.2614 8.97695C19.3977 8.97695 19.4795 8.86689 19.4795 8.75683V4.40937C19.4795 4.27179 19.3705 4.18924 19.2614 4.18924H14.7341L15.4705 3.44632L14.7341 4.18924H12.8523L15.4705 3.44632C15.5523 3.36378 15.5523 3.2262 15.4705 3.11614L12.4432 0.06191C12.3614 -0.0206367 12.225 -0.0206367 12.1159 0.06191L8.89773 3.30875L7.53409 4.71204L8.89773 2.26315C8.89773 2.12558 8.78864 2.04303 8.67955 2.04303H4.39773C4.26136 2.04303 4.17955 2.15309 4.17955 2.26315V6.88577V8.75683L3.41591 6.11533C3.33409 6.03279 3.19773 6.03279 3.08864 6.11533L0.0613636 9.14205C-0.0204545 9.22459 -0.0204545 9.36217 0.0613636 9.47223L4.61591 14.0673L2.24318 12.7466C2.10682 12.7466 2.025 12.8566 2.025 12.9667V17.2867C2.025 17.4242 2.13409 17.5068 2.24318 17.5068H6.79773H8.67955L6.06136 18.2497C5.97955 18.3322 5.97955 18.4698 6.06136 18.5799L9.11591 21.6341C9.19773 21.7167 9.33409 21.7167 9.44318 21.6341L12.6341 18.4148V19.4604C12.6341 19.598 12.7432 19.6805 12.8523 19.6805H17.1341C17.2705 19.6805 17.3523 19.5704 17.3523 19.4604V14.8378L18.1159 15.6082C18.1977 15.6908 18.3341 15.6908 18.4432 15.6082L21.4705 12.554C21.5523 12.4714 21.5523 12.3339 21.4705 12.2513Z" transform="translate(1.24744 0.00244141)" fill="#9E9E9E"/>
</svg>
