<svg xmlns="http://www.w3.org/2000/svg" width="35" height="28" fill="none" viewBox="0 0 35 28"><path fill="#D9D9D9" d="M34.66529506 17.3813v-.41604852h-.1089212l-.12605042.2857773-.12536667-.2857773h-.1096089V17.3813h.07741352v-.31374243l.11782966.27077321h.08014853l.11782965-.2714554V17.3813h.07672583zm-.69121819 0v-.34511652h.13975065v-.07025217h-.35622755v.07025217h.13975068V17.3813h.07672622z"/><path fill="#8A8A8A" d="M22.23266094 19.17019402h-9.46656201V2.30176532h9.466562v16.8684287z"/><path fill="#B1B1B1" d="M29.93610903 26.64003977v.070251h.06508001c.01438595 0 .0267171-.00341013.03493747-.0088664.0089057-.00545668.0137014-.01500526.0137014-.0266s-.0047957-.02046153-.0137014-.0259178c-.00822038-.00613847-.02055152-.0088668-.03493747-.0088668h-.06508zm.06576494-.04910846c.0335676 0 .05959976.00750557.0780961.02250886.01849475.01500486.0274032.0354664.0274032.0613842 0 .0218255-.00685326.0395587-.02192296.05388177-.01438595.0136409-.0356224.02250769-.0623395.02591781l.08631765.09889714h-.06713638l-.08015128-.09821496h-.02603177v.09821496h-.0561747v-.26258978h.12193964zm-.01712646.35262012c.03082748 0 .05959976-.00545627.08563192-.017051.02671788-.01159514.05000874-.02728218.0698769-.04706153.01986423-.01977935.035622-.04296882.04726547-.070251.01096364-.02659999.01712921-.05524574.01712921-.08593804 0-.0306923-.00616557-.05933844-.01712921-.08593803-.01164347-.02659882-.02740124-.05047126-.04726547-.07025296-.01986816-.01977778-.04315902-.03546483-.0698769-.04637738-.02603216-.0115963-.05480444-.01705062-.08563192-.01705062-.03082708 0-.0602847.00545431-.08700179.01705062-.02740202.01091255-.051379.0265996-.07124519.04637738-.01986658.0197817-.03562279.04365414-.04658368.07025296-.01164621.0265996-.01712646.05524574-.01712646.08593803 0 .0306923.00548025.05933805.01712646.08593804.0109609.02728218.0267171.05047165.04658368.070251.0198662.01977935.04384317.0354664.0712452.04706152.02671709.01159474.0561747.01705101.08700178.01705101zm0-.50335249c.0404185 0 .07741116.00750165.1123498.02250887.035622.01432346.06576612.034785.09247968.06070084.02603373.02523602.04658564.05524652.06165574.09003152.01507009.03410242.0226071.07093278.0226071.1098097 0 .0388769-.00753701.07570727-.0226071.10980969-.0150701.03410242-.035622.06411253-.06165574.08934855-.02671356.02591781-.05685767.04637923-.09247968.06138428-.03493864.01500506-.0719313.02250761-.1123498.02250761-.04110304 0-.07878102-.00750255-.11440381-.0225076-.0356228-.01500506-.06645027-.03546648-.09248204-.06138429-.02603216-.02523602-.04658372-.05524613-.06165491-.08934855-.01507115-.03410242-.02260675-.07093279-.02260675-.1098097 0-.0388769.0075356-.07570727.02260675-.10980969.0150712-.034785.03562275-.0647955.06165491-.09003152.02603177-.02591585.05685925-.04637738.09248204-.06070084.03562279-.01500722.07330077-.02250887.11440381-.02250887z"/><path fill="#616161" d="M25.42477196 23.9342356c.12590502 0 .30682472.02387244.44506876.07775539l-.19259068.5838315c-.13207453-.05387902-.26414906-.0716134-.39072212-.0716134-.40860188 0-.61290283.26190525-.61290283.73252047v1.59735791h-.62532043v-2.84823455h.61911163v.3457987c.1623326-.25031286.39693092-.41741602.75735567-.41741602zm-2.30994853.63771838h-1.02150472v1.28702521c0 .28577769.10177716.47674936.4147714.47674936.1623719 0 .36667283-.05387902.55238668-.16096117l.18025167.5299513c-.19813144.13709187-.51041835.22098403-.7807762.22098403-.7394759 0-.99745545-.39354032-.99745545-1.05513114v-1.2986176h-.58331279v-.56610105h.5833128v-.86415487h.6308219v.86415487h1.02150471v.56610106zm-7.99952743.60770394c.06672494-.41127403.3184957-.6915974.76356446-.6915974.40243238 0 .66107997.25031286.72709759.6915974H15.115296zm2.14003175.25031287c-.0061695-.88802732-.55926352-1.4957352-1.36479632-1.4957352-.84129235 0-1.4301066.60770788-1.4301066 1.4957352 0 .90507793.61290283 1.49504994 1.47278227 1.49504994.43269046 0 .82891405-.10708183 1.17766782-.39900033l-.30678543-.45901892c-.24009978.1909756-.54688522.29805775-.83512284.29805775-.40243239 0-.76906593-.18483753-.85917212-.69705564h2.13315492c.0062088-.07775146.0123783-.1548231.0123783-.2380328zm2.74609705-.69705565c-.17404287-.10776197-.52829811-.24485462-.89497095-.24485462-.34254498 0-.54688522.12549634-.54688522.3342024 0 .19029184.21601121.24417479.48636907.27964354l.29440713.04160289c.62532043.09003152 1.00362495.35193676 1.00362495.8525625 0 .5422286-.4808283.92963086-1.30974235.92963086-.46915733 0-.9018085-.11935855-1.24439277-.36967023l.29440714-.482889c.21050974.16096117.52350397.29805382.95619443.29805382.42648166 0 .65487117-.12481652.65487117-.3457987 0-.16028134-.1623326-.25031287-.50491687-.297374l-.29440713-.04160288c-.6432002-.09003153-.99195398-.37580921-.99195398-.84028637 0-.56610105.46911804-.91189975 1.19625492-.91189975.45673974 0 .87155042.10162783 1.17145902.29805774l-.27031856.5006218zm7.70787104-.21006962c-.12865576 0-.24764465.02250886-.35838135.0668389-.11006865.04501773-.2057156.1077659-.28619422.18824845-.08047862.08047862-.1437455.17733196-.18983994.28986842-.04609444.11254039-.06880765.23667315-.06880765.37171847 0 .13572515.0227132.25917809.06880765.37171455.04609444.11254038.10936132.2093898.18983994.28987235.08047862.08048254.17612557.14323072.28619422.18824451.1107367.0450138.22972559.06684284.35838135.06684284.12861646 0 .24831269-.02182904.35838134-.06684284.11077599-.0450138.20705168-.10776197.2875303-.18824451.08189328-.08048255.14516016-.17733197.19192264-.28987235.04609444-.11253646.06880764-.2359894.06880764-.37171455 0-.13504532-.0227132-.25917808-.06880764-.37171847-.04676248-.11253646-.11002936-.2093898-.19192264-.28986842-.08047862-.08048255-.17675431-.14323072-.2875303-.18824845-.11006865-.04433004-.22976488-.0668389-.35838134-.0668389zm0-.58860992c.22288805 0 .4292324.0381959.61911163.11526754.18983994.07638788.35425524.18210645.49253857.31647195.13895136.13436156.24693732.29327933.32537254.47606953.07839592.18347003.11761352.3826271.11761352.59747514 0 .21484412-.0392176.41400119-.11761352.59747515-.07843522.18278627-.18642118.34238779-.32537254.47674935-.13828333.13436471-.30269863.23939992-.49253857.31647156-.18987924.0763893-.39622358.11458418-.61911163.11458418s-.42927169-.03819488-.61911163-.11458418c-.18987924-.07707164-.35287988-.18210685-.49045587-.31647156-.137576-.13436156-.24560125-.29396308-.32399717-.47674935-.07843522-.18347396-.11765283-.38263103-.11765283-.59747515 0-.21484804.03921761-.41400511.11765283-.59747514.07839592-.1827902.18642117-.34170797.32399717-.47606953.137576-.1343655.30057663-.24008407.49045587-.31647195.18983994-.07707164.39622358-.11526754.61911163-.11526754zm-16.24536345 1.49573519c0-.50062573.330874-.91189976.87158971-.91189976.51658785 0 .86534163.39354358.86534163.91189976 0 .51835617-.34875378.911216-.86534162.911216-.54071572 0-.87158972-.4105942-.87158972-.911216zm2.3257849 0v-1.42411787h-.6246131v.3457987c-.19879948-.25645093-.49870808-.41741602-.90734926-.41741602-.80549351 0-1.43631541.62543832-1.43631541 1.49573519 0 .86961311.6308219 1.49573192 1.4363154 1.49573192.40864119 0 .70854979-.1609638.90734926-.41741276v.34579752h.6246131V25.4299708zm-3.52133249 1.42411668v-1.78764976c0-.6731832-.43269046-1.12606012-1.1295339-1.13220211-.36664534-.00613807-.74567683.10708214-1.00982982.5067638-.19811572-.3157882-.51110603-.5067638-.94998564-.5067638-.30611346 0-.60672153.0893517-.84129627.42287033v-.35125301H5.71313v2.84823455h.63080225v-1.57894371c0-.49448373.27653129-.75707273.70302867-.75707273.41480282 0 .62529685.2680433.62529685.75093466v1.58508178h.63080225v-1.57894371c0-.49448373.28891352-.75707273.70302867-.75707273.42718113 0 .631486.2680433.631486.75093466v1.58508178h.63081011z"/><path fill="#9E9E9E" d="M13.37269334 10.7354588c0-3.4218345 1.61585975-6.46992284 4.13219191-8.434222C15.6647621.86484282 13.34243527.00751763 10.81855823.00751763 4.84349243.00751762 0 4.81049566 0 10.7354588 0 16.66042195 4.84349243 21.4634 10.81855823 21.4634c2.52387704 0 4.84620386-.85733698 6.68632702-2.29373098-2.51633217-1.96428736-4.1321919-5.0123757-4.1321919-8.43421021z"/><path fill="#D0D0D0" d="M35.00045329 10.7349588c0 5.92496316-4.84345313 10.7279412-10.81851894 10.7279412-2.52387703 0-4.8462235-.85733698-6.68703435-2.29373098 2.517012-1.96428736 4.13285995-5.0123757 4.13285995-8.43421021 0-3.4218345-1.61584796-6.46992285-4.13285995-8.434222C19.33571084.8643428 21.65805732.0070176 24.18193435.0070176c5.9750658 0 10.81851894 4.80297805 10.81851894 10.7279412z"/></svg>