<svg width="33" height="25" viewBox="0 0 33 25" fill="none" xmlns="http://www.w3.org/2000/svg">
<path d="M0.219575 0V0.0980338H0.193226L0.162734 0.0306958L0.132408 0.0980338H0.105893V0H0.124619V0.0739271L0.153123 0.0101248H0.172511L0.201015 0.0740879V0H0.219575ZM0.0523666 0V0.0813198H0.0861728V0.0978731H-7.902e-09V0.0813198H0.0338063V0H0.0523666Z" transform="translate(31.8286 16.087) scale(3.92962 -3.92962)" fill="#0099DF"/>
<path d="M2.83913 4.96838H-3.22356e-07V1.56945e-06H2.83913V4.96838Z" transform="translate(12.0361 2.12512) scale(3.1437)" fill="#6C6BBD"/>
<path d="M3.2085 2.52783C3.2085 3.33411 3.59619 4.05233 4.19993 4.51518C3.75843 4.85364 3.20124 5.05565 2.59568 5.05565C1.16209 5.05565 -8.81442e-08 3.92392 -8.81442e-08 2.52783C-8.81442e-08 1.13173 1.16209 -1.47135e-08 2.59568 -1.47135e-08C3.20124 -1.47135e-08 3.75843 0.202014 4.19993 0.540472C3.59619 1.00332 3.2085 1.72154 3.2085 2.52783Z" transform="translate(0 19.8668) scale(3.92962 -3.92962)" fill="#EB001B"/>
<path d="M4.2001 2.52783C4.2001 1.13173 3.03801 -1.47135e-08 1.60442 -1.47135e-08C0.99886 -1.47135e-08 0.441664 0.202014 7.55522e-09 0.540472C0.603905 1.00332 0.991598 1.72154 0.991598 2.52783C0.991598 3.33411 0.603905 4.05233 7.55522e-09 4.51518C0.441664 4.85364 0.99886 5.05565 1.60442 5.05565C3.03801 5.05565 4.2001 3.92392 4.2001 2.52783Z" transform="translate(16.4954 19.8668) scale(3.92962 -3.92962)" fill="#0099DF"/>
<path d="M4.7294 0.709379C4.75961 0.709379 4.80301 0.703754 4.83619 0.691058L4.78998 0.553489C4.75829 0.566185 4.7266 0.570364 4.69623 0.570364C4.59819 0.570364 4.54917 0.508651 4.54917 0.39776V0.0213746H4.39915V0.692504H4.54769V0.611024C4.58664 0.670005 4.64292 0.709379 4.7294 0.709379ZM4.17518 0.559114H3.93008V0.255852C3.93008 0.188514 3.95451 0.143515 4.02961 0.143515C4.06856 0.143515 4.11758 0.156211 4.16214 0.181443L4.20538 0.0565704C4.15785 0.0242674 4.08292 0.00449989 4.01805 0.00449989C3.84063 0.00449989 3.77874 0.0972303 3.77874 0.25312V0.559114H3.63878V0.692504H3.77874V0.896125H3.93008V0.692504H4.17518V0.559114ZM2.25585 0.415921C2.27186 0.512829 2.33227 0.578882 2.43905 0.578882C2.53561 0.578882 2.59766 0.519901 2.61351 0.415921H2.25585ZM2.76931 0.35694C2.76783 0.566185 2.63513 0.709379 2.44186 0.709379C2.24001 0.709379 2.09873 0.566185 2.09873 0.35694C2.09873 0.143676 2.24579 0.00466059 2.45209 0.00466059C2.55591 0.00466059 2.65097 0.0298923 2.73465 0.0986767L2.66104 0.206835C2.60344 0.161836 2.52983 0.136605 2.46068 0.136605C2.36412 0.136605 2.27615 0.180157 2.25453 0.300851H2.76634C2.76783 0.319172 2.76931 0.337333 2.76931 0.35694ZM3.42818 0.521186C3.38642 0.546579 3.30142 0.578882 3.21345 0.578882C3.13126 0.578882 3.08224 0.549311 3.08224 0.500133C3.08224 0.455295 3.13407 0.442599 3.19893 0.434242L3.26957 0.424438C3.4196 0.403224 3.51037 0.341511 3.51037 0.223549C3.51037 0.0957839 3.395 0.00449989 3.19612 0.00449989C3.08356 0.00449989 2.97975 0.0326243 2.89755 0.0916054L2.96819 0.205389C3.0187 0.167461 3.09379 0.135158 3.19761 0.135158C3.29994 0.135158 3.35473 0.164568 3.35473 0.216639C3.35473 0.254406 3.31578 0.27562 3.23359 0.286709L3.16295 0.296512C3.00863 0.317726 2.92495 0.385064 2.92495 0.494508C2.92495 0.627899 3.03751 0.709379 3.21197 0.709379C3.32156 0.709379 3.42108 0.685433 3.49304 0.639148L3.42818 0.521186ZM5.27752 0.570685C5.24666 0.570685 5.21811 0.565382 5.19153 0.554936C5.16513 0.544329 5.14218 0.529543 5.12287 0.510579C5.10356 0.491616 5.08838 0.468795 5.07732 0.442277C5.06626 0.41576 5.06082 0.38651 5.06082 0.35469C5.06082 0.322708 5.06626 0.293619 5.07732 0.267102C5.08838 0.240585 5.10356 0.217764 5.12287 0.1988C5.14218 0.179836 5.16513 0.16505 5.19153 0.154443C5.21811 0.143836 5.24666 0.138694 5.27752 0.138694C5.30839 0.138694 5.3371 0.143836 5.36351 0.154443C5.39008 0.16505 5.41319 0.179836 5.4325 0.1988C5.45214 0.217764 5.46733 0.240585 5.47855 0.267102C5.48961 0.293619 5.49505 0.322708 5.49505 0.35469C5.49505 0.38651 5.48961 0.41576 5.47855 0.442277C5.46733 0.468795 5.45214 0.491616 5.4325 0.510579C5.41319 0.529543 5.39008 0.544329 5.36351 0.554936C5.3371 0.565382 5.30839 0.570685 5.27752 0.570685ZM5.27752 0.709379C5.331 0.709379 5.38051 0.700379 5.42606 0.682219C5.47162 0.664219 5.51106 0.639309 5.54424 0.607649C5.57758 0.575989 5.60349 0.538543 5.6223 0.495473C5.64112 0.452241 5.65053 0.405314 5.65053 0.35469C5.65053 0.304066 5.64112 0.257138 5.6223 0.213907C5.60349 0.170836 5.57758 0.13323 5.54424 0.101569C5.51106 0.0699093 5.47162 0.0451599 5.42606 0.0269995C5.38051 0.00899986 5.331 -5.51758e-09 5.27752 -5.51758e-09C5.22405 -5.51758e-09 5.17453 0.00899986 5.12898 0.0269995C5.08343 0.0451599 5.04431 0.0699093 5.0113 0.101569C4.97829 0.13323 4.95238 0.170836 4.93357 0.213907C4.91475 0.257138 4.90534 0.304066 4.90534 0.35469C4.90534 0.405314 4.91475 0.452241 4.93357 0.495473C4.95238 0.538543 4.97829 0.575989 5.0113 0.607649C5.04431 0.639309 5.08343 0.664219 5.12898 0.682219C5.17453 0.700379 5.22405 0.709379 5.27752 0.709379ZM1.37979 0.35694C1.37979 0.474902 1.45917 0.57181 1.5889 0.57181C1.71285 0.57181 1.79653 0.47908 1.79653 0.35694C1.79653 0.234799 1.71285 0.142229 1.5889 0.142229C1.45917 0.142229 1.37979 0.238978 1.37979 0.35694ZM1.93781 0.35694V0.692504H1.78795V0.611024C1.74025 0.671451 1.66829 0.709379 1.57025 0.709379C1.37698 0.709379 1.22563 0.562007 1.22563 0.35694C1.22563 0.152033 1.37698 0.00449989 1.57025 0.00449989C1.66829 0.00449989 1.74025 0.0424278 1.78795 0.102855V0.0213746H1.93781V0.35694ZM1.09294 0.0213746V0.442599C1.09294 0.60122 0.989123 0.707933 0.821931 0.709379C0.733961 0.710826 0.643021 0.684147 0.579643 0.589971C0.532109 0.66438 0.457013 0.709379 0.351714 0.709379C0.278268 0.709379 0.206143 0.688326 0.149862 0.609738V0.692504H-1.13328e-07V0.0213746H0.151347V0.393421C0.151347 0.509937 0.217696 0.57181 0.320025 0.57181C0.419548 0.57181 0.470052 0.508651 0.470052 0.394867V0.0213746H0.6214V0.393421C0.6214 0.509937 0.690719 0.57181 0.790077 0.57181C0.892571 0.57181 0.941589 0.508651 0.941589 0.394867V0.0213746H1.09294Z" transform="translate(5.38672 24.9424) scale(3.92962 -3.92962)" fill="#231F20"/>
<path d="M0.0588491 0.0863019V0.0697486H0.0746419C0.0781329 0.0697486 0.0811253 0.0705522 0.0831201 0.0718379C0.0852813 0.0731236 0.086445 0.0753735 0.086445 0.0781056C0.086445 0.0808377 0.0852813 0.082927 0.0831201 0.0842126C0.0811253 0.085659 0.0781329 0.0863019 0.0746419 0.0863019H0.0588491ZM0.0748081 0.0978731C0.0829539 0.0978731 0.089271 0.0961053 0.0937595 0.0925696C0.098248 0.089034 0.100409 0.0842126 0.100409 0.0781056C0.100409 0.0729629 0.0987467 0.0687844 0.0950894 0.0654094C0.0915984 0.0621952 0.086445 0.060106 0.0799616 0.0593024L0.100908 0.0359993H0.0846163L0.0651662 0.0591417H0.0588491V0.0359993H0.0452174V0.0978731H0.0748081ZM0.0706521 0.0147854C0.0781329 0.0147854 0.085115 0.0160711 0.0914322 0.0188032C0.0979155 0.0215353 0.103568 0.0252317 0.108389 0.0298923C0.11321 0.0345529 0.117033 0.0400171 0.119859 0.0464455C0.122519 0.0527133 0.124015 0.0594631 0.124015 0.0666951C0.124015 0.0739271 0.122519 0.080677 0.119859 0.0869447C0.117033 0.0932125 0.11321 0.0988374 0.108389 0.103498C0.103568 0.108159 0.0979155 0.111855 0.0914322 0.114426C0.085115 0.117158 0.0781329 0.118444 0.0706521 0.118444C0.0631713 0.118444 0.056023 0.117158 0.0495396 0.114426C0.04289 0.111855 0.0370716 0.108159 0.0322506 0.103498C0.0274296 0.0988374 0.0236061 0.0932125 0.0209463 0.0869447C0.0181202 0.080677 0.0167903 0.0739271 0.0167903 0.0666951C0.0167903 0.0594631 0.0181202 0.0527133 0.0209463 0.0464455C0.0236061 0.0400171 0.0274296 0.0345529 0.0322506 0.0298923C0.0370716 0.0252317 0.04289 0.0215353 0.0495396 0.0188032C0.056023 0.0160711 0.0631713 0.0147854 0.0706521 0.0147854ZM0.0706521 0.13339C0.0804603 0.13339 0.0894373 0.131622 0.0979155 0.128087C0.10656 0.124712 0.113875 0.119891 0.120358 0.113784C0.126675 0.107837 0.131662 0.100766 0.13532 0.0925696C0.138977 0.0845341 0.140806 0.0758557 0.140806 0.0666951C0.140806 0.0575346 0.138977 0.0488562 0.13532 0.0408206C0.131662 0.0327851 0.126675 0.0257138 0.120358 0.0197675C0.113875 0.0136604 0.10656 0.00883911 0.0979155 0.00530347C0.0894373 0.00176782 0.0804603 0 0.0706521 0C0.0606777 0 0.0515345 0.00176782 0.04289 0.00530347C0.0342455 0.00883911 0.0267647 0.0136604 0.0204476 0.0197675C0.0141304 0.0257138 0.00914321 0.0327851 0.00548593 0.0408206C0.00182864 0.0488562 -3.56713e-10 0.0575346 -3.56713e-10 0.0666951C-3.56713e-10 0.0758557 0.00182864 0.0845341 0.00548593 0.0925696C0.00914321 0.100766 0.0141304 0.107837 0.0204476 0.113784C0.0267647 0.119891 0.0342455 0.124712 0.04289 0.128087C0.0515345 0.131622 0.0606777 0.13339 0.0706521 0.13339Z" transform="translate(27.9961 25) scale(3.92962 -3.92962)" fill="#231F20"/>
</svg>
