<svg width="34" height="27" viewBox="0 0 34 27" fill="none" xmlns="http://www.w3.org/2000/svg">
<path d="M0.223601 0V0.105875H0.196769L0.165718 0.033151L0.134836 0.105875H0.107835V0H0.126904V0.07984L0.15593 0.0109346H0.175675L0.204701 0.0800136V0H0.223601ZM0.0533268 0V0.087824H0.0877529V0.105701H-8.04689e-09V0.087824H0.0344261V0H0.0533268Z" transform="translate(32.7951 17.3745) scale(3.92962 -3.92962)" fill="#F79410"/>
<path d="M8.03535 0.0932046V0.0753273H8.05151C8.05508 0.0753273 8.05814 0.0761952 8.06035 0.0775837C8.06239 0.0789722 8.06358 0.0814021 8.06358 0.0843527C8.06358 0.0873033 8.06239 0.0895597 8.06035 0.0909482C8.05814 0.0925103 8.05508 0.0932046 8.05151 0.0932046H8.03535ZM8.05168 0.105701C8.06001 0.105701 8.06647 0.103792 8.07106 0.0999736C8.07566 0.0961552 8.07787 0.0909482 8.07787 0.0843527C8.07787 0.0787986 8.07617 0.0742859 8.07243 0.0706411C8.06885 0.0671698 8.06375 0.0649134 8.05695 0.0640456L8.07838 0.0388786H8.06171L8.04181 0.063872H8.03535V0.0388786H8.02141V0.105701H8.05168ZM8.04743 0.0157944C8.05508 0.0157944 8.06222 0.0173565 8.06868 0.0203071C8.07532 0.0232577 8.0811 0.0272497 8.08603 0.0322831C8.09096 0.0373165 8.09487 0.0432178 8.09776 0.0501604C8.10048 0.0569294 8.10202 0.0642191 8.10202 0.0720296C8.10202 0.07984 8.10048 0.0871298 8.09776 0.0938988C8.09487 0.100668 8.09096 0.106743 8.08603 0.111776C8.0811 0.116809 8.07532 0.120801 8.06868 0.123752C8.06222 0.126529 8.05508 0.127918 8.04743 0.127918C8.03977 0.127918 8.03246 0.126529 8.02583 0.123752C8.01903 0.120801 8.01308 0.116809 8.00814 0.111776C8.00321 0.106743 7.9993 0.100668 7.99658 0.0938988C7.99369 0.0871298 7.99233 0.07984 7.99233 0.0720296C7.99233 0.0642191 7.99369 0.0569294 7.99658 0.0501604C7.9993 0.0432178 8.00321 0.0373165 8.00814 0.0322831C8.01308 0.0272497 8.01903 0.0232577 8.02583 0.0203071C8.03246 0.0173565 8.03977 0.0157944 8.04743 0.0157944ZM8.04743 0.144059C8.05746 0.144059 8.06664 0.14215 8.07549 0.138332C8.08416 0.134687 8.09164 0.12948 8.09827 0.122884C8.10474 0.116462 8.10984 0.108825 8.11358 0.0999736C8.11732 0.0912953 8.11919 0.0819228 8.11919 0.0720296C8.11919 0.0621364 8.11732 0.0527638 8.11358 0.0440856C8.10984 0.0354073 8.10474 0.0277704 8.09827 0.021175C8.09164 0.014753 8.08416 0.00954609 8.07549 0.00572765C8.06664 0.00190922 8.05746 0 8.04743 0C8.03722 0 8.02787 0.00190922 8.01903 0.00572765C8.01018 0.00954609 8.00253 0.014753 7.99607 0.021175C7.98961 0.0277704 7.98451 0.0354073 7.98076 0.0440856C7.97702 0.0527638 7.97515 0.0621364 7.97515 0.0720296C7.97515 0.0819228 7.97702 0.0912953 7.98076 0.0999736C7.98451 0.108825 7.98961 0.116462 7.99607 0.122884C8.00253 0.12948 8.01018 0.134687 8.01903 0.138332C8.02787 0.14215 8.03722 0.144059 8.04743 0.144059ZM1.42184 0.401456C1.42184 0.528853 1.50364 0.633513 1.63731 0.633513C1.76502 0.633513 1.85124 0.533366 1.85124 0.401456C1.85124 0.269547 1.76502 0.1694 1.63731 0.1694C1.50364 0.1694 1.42184 0.27406 1.42184 0.401456ZM1.99681 0.401456V0.763861H1.8424V0.675863C1.79342 0.741124 1.7191 0.782085 1.61809 0.782085C1.41895 0.782085 1.26284 0.622752 1.26284 0.401456C1.26284 0.179987 1.41895 0.0208278 1.61809 0.0208278C1.7191 0.0208278 1.79342 0.0617892 1.8424 0.12705V0.0390522H1.99681V0.401456ZM7.21483 0.401456C7.21483 0.528853 7.29663 0.633513 7.43029 0.633513C7.55817 0.633513 7.64422 0.533366 7.64422 0.401456C7.64422 0.269547 7.55817 0.1694 7.43029 0.1694C7.29663 0.1694 7.21483 0.27406 7.21483 0.401456ZM7.78996 0.401456V1.05493H7.63538V0.675863C7.5864 0.741124 7.51209 0.782085 7.41107 0.782085C7.21194 0.782085 7.05583 0.622752 7.05583 0.401456C7.05583 0.179987 7.21194 0.0208278 7.41107 0.0208278C7.51209 0.0208278 7.5864 0.0617892 7.63538 0.12705V0.0390522H7.78996V0.401456ZM3.91352 0.640976C4.013 0.640976 4.07694 0.577278 4.09327 0.465155H3.72475C3.74125 0.569815 3.80349 0.640976 3.91352 0.640976ZM3.91658 0.782085C3.70843 0.782085 3.56286 0.627438 3.56286 0.401456C3.56286 0.170962 3.71438 0.0208278 3.92695 0.0208278C4.03392 0.0208278 4.13187 0.0480776 4.21809 0.122364L4.14241 0.239173C4.08289 0.190748 4.00705 0.163325 3.93579 0.163325C3.83631 0.163325 3.74567 0.210361 3.72339 0.340882H4.25074C4.25227 0.360495 4.2538 0.380281 4.2538 0.401456C4.25227 0.627438 4.11554 0.782085 3.91658 0.782085ZM5.78108 0.401456C5.78108 0.528853 5.86288 0.633513 5.99654 0.633513C6.12425 0.633513 6.21047 0.533366 6.21047 0.401456C6.21047 0.269547 6.12425 0.1694 5.99654 0.1694C5.86288 0.1694 5.78108 0.27406 5.78108 0.401456ZM6.35604 0.401456V0.763861H6.20163V0.675863C6.15248 0.741124 6.07834 0.782085 5.97733 0.782085C5.77819 0.782085 5.62208 0.622752 5.62208 0.401456C5.62208 0.179987 5.77819 0.0208278 5.97733 0.0208278C6.07834 0.0208278 6.15248 0.0617892 6.20163 0.12705V0.0390522H6.35604V0.401456ZM4.90903 0.401456C4.90903 0.181549 5.05902 0.0208278 5.28792 0.0208278C5.39488 0.0208278 5.46614 0.045127 5.54334 0.107263L5.4692 0.23466C5.41121 0.192137 5.35033 0.1694 5.28332 0.1694C5.16003 0.170962 5.06939 0.26191 5.06939 0.401456C5.06939 0.541003 5.16003 0.631951 5.28332 0.633513C5.35033 0.633513 5.41121 0.610776 5.4692 0.568253L5.54334 0.69565C5.46614 0.757786 5.39488 0.782085 5.28792 0.782085C5.05902 0.782085 4.90903 0.621364 4.90903 0.401456ZM6.89988 0.782085C6.81077 0.782085 6.75278 0.739562 6.71265 0.675863V0.763861H6.5596V0.0390522H6.71418V0.445368C6.71418 0.565302 6.76469 0.631951 6.8657 0.631951C6.89699 0.631951 6.92964 0.627438 6.96229 0.613727L7.00991 0.762299C6.97573 0.77601 6.93117 0.782085 6.89988 0.782085ZM2.76053 0.706237C2.68622 0.756224 2.58384 0.782085 2.47092 0.782085C2.291 0.782085 2.1752 0.694088 2.1752 0.550028C2.1752 0.43183 2.26141 0.358933 2.42025 0.336196L2.4932 0.325608C2.57789 0.313459 2.61785 0.290722 2.61785 0.24976C2.61785 0.193699 2.5614 0.161763 2.45596 0.161763C2.34899 0.161763 2.27179 0.196649 2.21975 0.237611L2.14697 0.1149C2.23166 0.0512018 2.33862 0.0208278 2.45443 0.0208278C2.65952 0.0208278 2.77839 0.119413 2.77839 0.257397C2.77839 0.384794 2.68486 0.451443 2.53027 0.47418L2.45749 0.484941C2.39066 0.493967 2.33709 0.507505 2.33709 0.556103C2.33709 0.609214 2.3876 0.640976 2.47229 0.640976C2.56293 0.640976 2.65068 0.60609 2.6937 0.57884L2.76053 0.706237ZM4.75292 0.782085C4.66381 0.782085 4.60582 0.739562 4.56585 0.675863V0.763861H4.4128V0.0390522H4.56721V0.445368C4.56721 0.565302 4.61772 0.631951 4.71874 0.631951C4.75003 0.631951 4.78268 0.627438 4.81533 0.613727L4.86294 0.762299C4.82876 0.77601 4.78421 0.782085 4.75292 0.782085ZM3.43515 0.763861H3.18261V0.983768H3.0265V0.763861H2.88246V0.619802H3.0265V0.28916C3.0265 0.120975 3.09044 0.0208278 3.27308 0.0208278C3.34009 0.0208278 3.41729 0.0420028 3.46627 0.0768894L3.42171 0.211923C3.37563 0.184673 3.32512 0.170962 3.28499 0.170962C3.20778 0.170962 3.18261 0.21956 3.18261 0.292284V0.619802H3.43515V0.763861ZM1.12629 0.0390522V0.493967C1.12629 0.665276 1.01932 0.780523 0.846883 0.782085C0.756242 0.783647 0.662711 0.754835 0.59724 0.653126C0.548263 0.733487 0.471057 0.782085 0.362561 0.782085C0.286716 0.782085 0.212571 0.759348 0.154582 0.674475V0.763861H0V0.0390522H0.155942V0.440856C0.155942 0.566691 0.224305 0.633513 0.32991 0.633513C0.432454 0.633513 0.484322 0.565302 0.484322 0.442418V0.0390522H0.640434V0.440856C0.640434 0.566691 0.711687 0.633513 0.814232 0.633513C0.919667 0.633513 0.970174 0.565302 0.970174 0.442418V0.0390522H1.12629Z" transform="translate(1.73096 27) scale(3.92962 -3.92962)" fill="#616161"/>
<path d="M2.92531 5.36577H-8.63569e-06V1.69497e-06H2.92531V5.36577Z" transform="translate(12.4017 2.29541) scale(3.1437)" fill="#8A8A8A"/>
<path d="M3.3059 2.73001C3.3059 3.60079 3.70537 4.37645 4.32743 4.87632C3.87253 5.24184 3.29842 5.46002 2.67448 5.46002C1.19737 5.46002 0 4.23777 0 2.73001C0 1.22225 1.19737 0 2.67448 0C3.29842 0 3.87253 0.218172 4.32743 0.5837C3.70537 1.08357 3.3059 1.85923 3.3059 2.73001Z" transform="translate(0 21.4561) scale(3.92962 -3.92962)" fill="#9E9E9E"/>
<path d="M4.3276 2.73001C4.3276 1.22225 3.13024 0 1.65312 0C1.02918 0 0.455072 0.218172 0 0.5837C0.622238 1.08357 1.0217 1.85923 1.0217 2.73001C1.0217 3.60079 0.622238 4.37645 0 4.87632C0.455072 5.24184 1.02918 5.46002 1.65312 5.46002C3.13024 5.46002 4.3276 4.23777 4.3276 2.73001Z" transform="translate(16.9941 21.4561) scale(3.92962 -3.92962)" fill="#D9D9D9"/>
</svg>
