<svg width="33" height="25" viewBox="0 0 33 25" fill="none" xmlns="http://www.w3.org/2000/svg">
<path d="M7.79869 0.0863022V0.0697489H7.81437C7.81784 0.0697489 7.82081 0.0705525 7.82295 0.0718382C7.82493 0.0731239 7.82609 0.0753738 7.82609 0.0781059C7.82609 0.080838 7.82493 0.0829273 7.82295 0.084213C7.82081 0.0856594 7.81784 0.0863022 7.81437 0.0863022H7.79869ZM7.81454 0.0978735C7.82262 0.0978735 7.82889 0.0961057 7.83335 0.09257C7.83781 0.0890343 7.83995 0.084213 7.83995 0.0781059C7.83995 0.0729632 7.8383 0.0687847 7.83467 0.0654097C7.83121 0.0621955 7.82625 0.0601062 7.81965 0.0593027L7.84045 0.0359994H7.82427L7.80496 0.0591419H7.79869V0.0359994H7.78516V0.0978735H7.81454ZM7.81041 0.0146248C7.81784 0.0146248 7.82477 0.0160712 7.83104 0.0188033C7.83748 0.0215354 7.84309 0.0252318 7.84788 0.0298924C7.85266 0.034553 7.85646 0.0400172 7.85926 0.0464457C7.8619 0.0527135 7.86339 0.0594634 7.86339 0.0666954C7.86339 0.0739274 7.8619 0.0806773 7.85926 0.0869451C7.85646 0.0932129 7.85266 0.0988378 7.84788 0.103498C7.84309 0.108159 7.83748 0.111855 7.83104 0.114588C7.82477 0.117159 7.81784 0.118445 7.81041 0.118445C7.80298 0.118445 7.79589 0.117159 7.78945 0.114588C7.78285 0.111855 7.77707 0.108159 7.77228 0.103498C7.7675 0.0988378 7.7637 0.0932129 7.76106 0.0869451C7.75825 0.0806773 7.75693 0.0739274 7.75693 0.0666954C7.75693 0.0594634 7.75825 0.0527135 7.76106 0.0464457C7.7637 0.0400172 7.7675 0.034553 7.77228 0.0298924C7.77707 0.0252318 7.78285 0.0215354 7.78945 0.0188033C7.79589 0.0160712 7.80298 0.0146248 7.81041 0.0146248ZM7.81041 0.133391C7.82015 0.133391 7.82906 0.131623 7.83764 0.128087C7.84606 0.124712 7.85332 0.119891 7.85976 0.113784C7.86603 0.107838 7.87098 0.100766 7.87461 0.09257C7.87824 0.0845344 7.88006 0.075856 7.88006 0.0666954C7.88006 0.0575348 7.87824 0.0488564 7.87461 0.0408208C7.87098 0.0327852 7.86603 0.0257139 7.85976 0.0196068C7.85332 0.0136605 7.84606 0.00883915 7.83764 0.00530349C7.82906 0.00176783 7.82015 0 7.81041 0C7.80051 0 7.79143 0.00176783 7.78285 0.00530349C7.77426 0.00883915 7.76684 0.0136605 7.76056 0.0196068C7.75429 0.0257139 7.74934 0.0327852 7.74571 0.0408208C7.74208 0.0488564 7.74026 0.0575348 7.74026 0.0666954C7.74026 0.075856 7.74208 0.0845344 7.74571 0.09257C7.74934 0.100766 7.75429 0.107838 7.76056 0.113784C7.76684 0.119891 7.77426 0.124712 7.78285 0.128087C7.79143 0.131623 7.80051 0.133391 7.81041 0.133391ZM1.37997 0.371726C1.37997 0.489689 1.45936 0.586598 1.58908 0.586598C1.71303 0.586598 1.79671 0.493867 1.79671 0.371726C1.79671 0.249585 1.71303 0.156855 1.58908 0.156855C1.45936 0.156855 1.37997 0.253764 1.37997 0.371726ZM1.938 0.371726V0.707293H1.78813V0.625812C1.7406 0.686239 1.66847 0.724167 1.57043 0.724167C1.37716 0.724167 1.22565 0.576634 1.22565 0.371726C1.22565 0.166658 1.37716 0.0192854 1.57043 0.0192854C1.66847 0.0192854 1.7406 0.0572134 1.78813 0.117641V0.0361602H1.938V0.371726ZM7.00233 0.371726C7.00233 0.489689 7.08172 0.586598 7.21145 0.586598C7.33557 0.586598 7.41908 0.493867 7.41908 0.371726C7.41908 0.249585 7.33557 0.156855 7.21145 0.156855C7.08172 0.156855 7.00233 0.253764 7.00233 0.371726ZM7.56053 0.371726V0.976806H7.4105V0.625812C7.36296 0.686239 7.29084 0.724167 7.1928 0.724167C6.99953 0.724167 6.84801 0.576634 6.84801 0.371726C6.84801 0.166658 6.99953 0.0192854 7.1928 0.0192854C7.29084 0.0192854 7.36296 0.0572134 7.4105 0.117641V0.0361602H7.56053V0.371726ZM3.79825 0.593509C3.89481 0.593509 3.95686 0.534527 3.97271 0.430708H3.61505C3.63106 0.527617 3.69147 0.593509 3.79825 0.593509ZM3.80122 0.724167C3.59921 0.724167 3.45792 0.580973 3.45792 0.371726C3.45792 0.158301 3.60498 0.0192854 3.81129 0.0192854C3.91511 0.0192854 4.01018 0.0445172 4.09385 0.113302L4.02041 0.221461C3.96264 0.176622 3.88903 0.15123 3.81987 0.15123C3.72332 0.15123 3.63535 0.194783 3.61373 0.315638H4.12554C4.12703 0.333798 4.12851 0.35212 4.12851 0.371726C4.12703 0.580973 3.99433 0.724167 3.80122 0.724167ZM5.61081 0.371726C5.61081 0.489689 5.6902 0.586598 5.81993 0.586598C5.94388 0.586598 6.02756 0.493867 6.02756 0.371726C6.02756 0.249585 5.94388 0.156855 5.81993 0.156855C5.6902 0.156855 5.61081 0.253764 5.61081 0.371726ZM6.16884 0.371726V0.707293H6.01898V0.625812C5.97128 0.686239 5.89932 0.724167 5.80128 0.724167C5.60801 0.724167 5.45649 0.576634 5.45649 0.371726C5.45649 0.166658 5.60801 0.0192854 5.80128 0.0192854C5.89932 0.0192854 5.97128 0.0572134 6.01898 0.117641V0.0361602H6.16884V0.371726ZM4.76445 0.371726C4.76445 0.168105 4.91002 0.0192854 5.13217 0.0192854C5.23599 0.0192854 5.30514 0.0417851 5.38007 0.0993199L5.30811 0.217282C5.25183 0.177908 5.19275 0.156855 5.12772 0.156855C5.00806 0.158301 4.92009 0.242514 4.92009 0.371726C4.92009 0.500939 5.00806 0.585152 5.12772 0.586598C5.19275 0.586598 5.25183 0.565545 5.30811 0.52617L5.38007 0.644133C5.30514 0.701668 5.23599 0.724167 5.13217 0.724167C4.91002 0.724167 4.76445 0.575348 4.76445 0.371726ZM6.69666 0.724167C6.61018 0.724167 6.5539 0.684793 6.51495 0.625812V0.707293H6.3664V0.0361602H6.51643V0.412387C6.51643 0.523438 6.56545 0.585152 6.66349 0.585152C6.69386 0.585152 6.72555 0.580973 6.75724 0.568277L6.80345 0.705846C6.77028 0.718543 6.72703 0.724167 6.69666 0.724167ZM2.67923 0.653936C2.6071 0.700221 2.50774 0.724167 2.39815 0.724167C2.22353 0.724167 2.11113 0.642687 2.11113 0.509296C2.11113 0.399851 2.19481 0.332352 2.34897 0.311299L2.41977 0.301495C2.50197 0.290246 2.54075 0.269192 2.54075 0.231264C2.54075 0.179354 2.48596 0.149783 2.38363 0.149783C2.27981 0.149783 2.20488 0.182086 2.15437 0.220014L2.08373 0.106391C2.16593 0.04741 2.26974 0.0192854 2.38214 0.0192854C2.58119 0.0192854 2.69656 0.11057 2.69656 0.238336C2.69656 0.356298 2.60578 0.418011 2.45575 0.439065L2.38511 0.449029C2.32025 0.457386 2.26826 0.469921 2.26826 0.514921C2.26826 0.564098 2.31728 0.593509 2.39947 0.593509C2.48744 0.593509 2.57261 0.561206 2.61436 0.535974L2.67923 0.653936ZM4.61293 0.724167C4.52645 0.724167 4.47016 0.684793 4.43138 0.625812V0.707293H4.28284V0.0361602H4.4327V0.412387C4.4327 0.523438 4.48172 0.585152 4.57976 0.585152C4.61013 0.585152 4.64181 0.580973 4.6735 0.568277L4.71972 0.705846C4.68654 0.718543 4.6433 0.724167 4.61293 0.724167ZM3.33397 0.707293H3.08888V0.910915H2.93736V0.707293H2.79757V0.573902H2.93736V0.267746C2.93736 0.112016 2.99942 0.0192854 3.17668 0.0192854C3.24171 0.0192854 3.31664 0.0388923 3.36418 0.0711953L3.32093 0.196229C3.27621 0.170997 3.22719 0.158301 3.18824 0.158301C3.1133 0.158301 3.08888 0.2033 3.08888 0.270639V0.573902H3.33397V0.707293ZM1.09311 0.0361602V0.457386C1.09311 0.616008 0.989299 0.722721 0.82194 0.724167C0.733969 0.725614 0.643193 0.698936 0.579649 0.604759C0.532116 0.679168 0.457184 0.724167 0.351883 0.724167C0.278271 0.724167 0.20631 0.703114 0.150029 0.624526V0.707293H9.06637e-08V0.0361602H0.151349V0.408208C0.151349 0.524724 0.217698 0.586598 0.320193 0.586598C0.419717 0.586598 0.470057 0.523438 0.470057 0.409654V0.0361602H0.621571V0.408208C0.621571 0.524724 0.690726 0.586598 0.79025 0.586598C0.89258 0.586598 0.9416 0.523438 0.9416 0.409654V0.0361602H1.09311Z" transform="translate(1.67969 25) scale(3.92962 -3.92962)" fill="#231F20"/>
<path d="M0.219575 0V0.0980342H0.193226L0.162734 0.030696L0.132408 0.0980342H0.105893V0H0.124619V0.0739274L0.153123 0.0101248H0.172512L0.201015 0.0740881V0H0.219575ZM0.0523667 0V0.0813202H0.086173V0.0978735H-7.90202e-09V0.0813202H0.0338063V0H0.0523667Z" transform="translate(31.8289 16.0872) scale(3.92962 -3.92962)" fill="#F79410"/>
<path d="M2.83915 4.9684H-8.38135e-06V1.56945e-06H2.83915V4.9684Z" transform="translate(12.0366 2.12512) scale(3.1437)" fill="#FF5F00"/>
<path d="M3.20854 2.52784C3.20854 3.33413 3.59623 4.05235 4.19998 4.5152C3.75848 4.85366 3.20127 5.05567 2.59571 5.05567C1.1621 5.05567 -8.81452e-08 3.92394 -8.81452e-08 2.52784C-8.81452e-08 1.13173 1.1621 -1.47136e-08 2.59571 -1.47136e-08C3.20127 -1.47136e-08 3.75848 0.202015 4.19998 0.540474C3.59623 1.00332 3.20854 1.72155 3.20854 2.52784Z" transform="translate(0 19.8669) scale(3.92962 -3.92962)" fill="#EB001B"/>
<path d="M4.20015 2.52784C4.20015 1.13173 3.03804 -1.47136e-08 1.60443 -1.47136e-08C0.998872 -1.47136e-08 0.441669 0.202015 7.55531e-09 0.540474C0.603911 1.00332 0.991609 1.72155 0.991609 2.52784C0.991609 3.33413 0.603911 4.05235 7.55531e-09 4.5152C0.441669 4.85366 0.998872 5.05567 1.60443 5.05567C3.03804 5.05567 4.20015 3.92394 4.20015 2.52784Z" transform="translate(16.4951 19.8669) scale(3.92962 -3.92962)" fill="#F79E1B"/>
</svg>
