<svg xmlns="http://www.w3.org/2000/svg" width="61" height="19" fill="none" viewBox="0 0 61 19">
  <path fill="#9E9E9E" d="M31.5534 6.07338c-.0367 2.64677 2.4498 4.12372 4.3117 4.99812 1.9231.898 2.56 1.477 2.56 2.2805-.0122 1.2288-1.5311 1.7724-2.952 1.796-2.4743.0355-3.9197-.6499-5.0588-1.1579l-.8942 4.0292c1.1514.5081 3.2705.9571 5.4753.9807 5.1813 0 8.562-2.4695 8.5865-6.2861.0245-4.8445-6.9574-5.11626-6.9084-7.29039.0122-.66169.6614-1.35883 2.0946-1.53607.7104-.09453 2.658-.15361 4.8628.82711l.8697-3.899251C43.3002.401741 41.7691 0 39.8705 0c-4.8629 0-8.2926 2.49316-8.3171 6.07338zM52.8177.330846c-.9432 0-1.7394.531716-2.0946 1.347014L43.3247 18.7046h5.1691l1.0289-2.7413h6.3205l.6002 2.7413H61L57.0191.330846h-4.2014zm.7227 4.974504l1.4943 6.90045h-4.0911l2.5968-6.90045zM25.2819.330846L21.203 18.7164h4.9241L30.206.330846h-4.9241zm-7.3004 0L12.8492 12.8439 10.7791 2.20958C10.5341 1.02799 9.57872.330846 8.5008.330846H.12249L0 .874378c1.72711.366292 3.6747.945272 4.86285 1.559702.72269.37811.93093.70895 1.1759 1.61878L9.97068 18.7164h5.20582L23.1629.330846h-5.1814z"/>
</svg>
