<svg width="65" height="20" viewBox="0 0 65 20" fill="none" xmlns="http://www.w3.org/2000/svg">
<path d="M33.6225 6.39303C33.5833 9.1791 36.2329 10.7338 38.2169 11.6542C40.2661 12.5995 40.9448 13.209 40.9448 14.0547C40.9317 15.3483 39.3133 15.9204 37.7992 15.9453C35.1627 15.9826 33.6225 15.2612 32.4086 14.7264L31.4558 18.9677C32.6827 19.5025 34.9408 19.9751 37.2902 20C42.8112 20 46.4137 17.4005 46.4398 13.3831C46.4659 8.28358 39.0261 7.99751 39.0783 5.70896C39.0914 5.01244 39.7831 4.27861 41.3102 4.09204C42.0673 3.99254 44.1426 3.93035 46.492 4.96269L47.4187 0.858209C46.1396 0.422886 44.508 0 42.4849 0C37.3032 0 33.6486 2.62438 33.6225 6.39303ZM56.2811 0.348259C55.2761 0.348259 54.4277 0.90796 54.0492 1.76617L46.1657 19.6891H51.6737L52.7701 16.8035H59.505L60.1446 19.6891H65L60.758 0.348259H56.2811ZM57.0512 5.58458L58.6436 12.8483H54.2841L57.0512 5.58458ZM26.9398 0.348259L22.5934 19.7015H27.8404L32.1867 0.348259H26.9398ZM19.1606 0.348259L13.6918 13.5199L11.4859 2.32587C11.2249 1.08209 10.2068 0.348259 9.05823 0.348259H0.130522L0 0.920398C1.84036 1.30597 3.91566 1.91542 5.18173 2.56219C5.95181 2.9602 6.17369 3.30846 6.43474 4.26617L10.6245 19.7015H16.1717L24.6817 0.348259H19.1606Z" fill="url(#paint0_linear)"/>
<defs>
<linearGradient id="paint0_linear" x2="1" gradientUnits="userSpaceOnUse" gradientTransform="translate(0 -20.9692) scale(65 61.9403)">
<stop stop-color="#222357"/>
<stop offset="1" stop-color="#254AA5"/>
</linearGradient>
</defs>
</svg>
