<svg version="1" xmlns="http://www.w3.org/2000/svg" width="666.667" height="666.667" viewBox="0 0 500.000000 500.000000"><path d="M235.8.5c-.2.1-3.9.5-8.3.8-21.6 1.6-50.3 8.6-73.2 17.8l-3.3 1.3v459.2l8.3 3.2c15.3 5.9 46.8 14.4 48.2 13 .3-.2.5-92.9.5-205.9.1-196.9.1-205.8 1.9-213.9 4.2-19.1 12.1-33.3 26-46.8C248.3 17 267.7 7.2 283 5.3c6.8-.9 6.9-.9 7.5-1.5 1.1-1.1-21.3-3-37.7-3.3-9.1-.2-16.8-.2-17 0zM377.6 37.1c8.1 9 14.8 23.1 19.1 40.4.4 1.6.9 75.2 1 163.5.2 88.3.4 171.7.6 185.3l.2 24.8 8.5-6.8c20.4-16.3 42.2-41.1 55.8-63.5 31.5-51.7 42.9-109.9 33.7-171.8-1.4-9.3-5.5-26-9.2-36.9C469.1 117.3 433.6 71.5 385 39.9c-3-2-6.6-4.2-8-4.9-2.4-1.2-2.3-1.1.6 2.1zM89.4 58.7C75.8 69.9 62.1 84.5 50 100.6 23.1 136.3 6.6 178.4 1.6 224c-1.2 11.4-1.4 46.1-.3 51.5.3 1.1.8 4.5 1.2 7.5 4.3 34.5 17.8 71.8 37 101.5 6.1 9.4 17.2 24.2 22.9 30.4 11.2 12.2 29 29.1 33.2 31.4 1.2.7 1.4-24.8 1.4-196.3 0-108.3-.1-197-.3-197-.2 0-3.4 2.6-7.3 5.7z"/><path d="M290.5 59.6c-11 3.4-21.6 13.4-25.2 23.9-1.7 4.7-1.8 17.2-1.8 210.5 0 182 .2 205.5 1.5 205.4 22.8-1.5 49.7-6.8 67-13.2l7.5-2.8.2-196.4c.2-192.1.1-196.6-1.8-202.5-3.5-10.8-11.7-19.5-22.7-23.8-6.4-2.6-18.3-3.1-24.7-1.1z"/></svg>