<svg xmlns="http://www.w3.org/2000/svg" width="161" height="42" fill="none" viewBox="0 0 161 42">
  <path fill="#1D1D1B" fill-rule="evenodd" d="M10.0929 7.727684h1.4044l-.4314 23.83522H8.82153l1.27137-23.83522zm6.6647 0h3.2641l1.9683 23.83522h-4.6478l-.5846-23.83522zM4.18325 32.692704H23.2719l.282 1.6967-.0012.3013H3.93628v-.3013l.24697-1.6967zm4.73262-28.23356h9.51523c1.0408 0 1.4443.8805 1.4443 1.81726v.32161H7.47353v-.32161c0-.94447.34846-1.81726 1.44234-1.81726zm-6.51521 31.36176H25.0703l.2578 4.7725v.475H2.13599v-.475l.26467-4.7725zM6.5436 4.645654v3.21393c0 .72184-.58532 1.3066-1.30424 1.3066h-3.937C.582787 9.166184 0 8.581424 0 7.859584v-5.11993c0-.63376.449076-1.16083 1.04715-1.28073.47315-.1122 1.00723-.22703 1.59309-.34055.52198-.101516 1.10796-.204243 1.74968-.305759C7.46726.322323 10.9734.026805 13.6745.1054191c.5238-.01585493 1.0832-.01585493 1.6666-.00506477.6157.01332257 1.2182.03743527 1.7998.07101687 3.1343.1858548 6.6195.6837438 9.204 1.3021928.598.14215.9997.67615.999 1.26609h.0045v5.11993c0 .72184-.5828 1.3066-1.3031 1.3066h-3.9344c-.7209 0-1.3049-.58476-1.3049-1.3066v-3.21393h2.6085v1.90733h1.3259v-2.77252c-2.2944-.47697-5.1386-.85121-7.7529-1.00657-.6151-.03744-1.1858-.06155-1.6977-.07234-.541-.01013-1.0642-.01013-1.5589.00507h-.0114c-.0266.00132-.0539.00132-.0817.00066-2.5453-.07807-5.89124.20677-8.83993.6768-.53594.085-1.09464.18454-1.66918.29431-.17297.0349-.34715.0697-.52143.10592v2.76867h1.3271v-1.90733H6.5436zm6.6134 3.08203h2.5009l.3808 23.83522h-3.3429l.4612-23.83522zm-5.82162 0h.7l-1.13577 23.83522H5.35962l1.97576-23.83522zM155.5937 35.351265h.931v4.195875l2.581-4.195875h1.003v5.500505h-.931V36.6827l-2.581 4.16907h-1.003v-5.500505zm-4.64 0h.93v2.376255c.297 0 .506-.05625.624-.16961.118-.11502.293-.44535.524-.99528.184-.434806.332-.721526.445-.859173.115-.138087.246-.231682.394-.279579.148-.049544.386-.072613.713-.072613h.187v.771176l-.259-.005493c-.244 0-.401.037351-.47.109522-.073.07635-.184.30265-.332.67912-.141.35889-.27.60662-.388.74426-.117.13974-.299.2653-.542.37823.398.10788.793.48105 1.179 1.11953l1.019 1.70416h-1.024l-.994-1.70416c-.203-.34132-.382-.56751-.532-.6755-.152-.10952-.333-.1628-.544-.1628v2.54246h-.93v-5.500505zm-5.914.000011h.931v4.195884l2.582-4.195884h1.002v5.500504h-.93v-4.16907l-2.582 4.16907h-1.003v-5.500504zm-5.846-.000004h.932v2.289798h2.582v-2.289798h.93v5.500508h-.93V38.4117h-2.582v2.44008h-.932v-5.500508zm-5.922 5.500508l2.007-2.85895-1.857-2.641554h1.164l.844 1.289034c.157.24563.286.45084.381.61716.152-.22806.291-.42997.421-.60662l.925-1.299574h1.112l-1.898 2.590364 2.043 2.91014h-1.142l-1.129-1.70966-.3-.46127-1.443 2.17093h-1.128zm-4.3349-3.27949h3.0679c-.041-.46182-.16-.80973-.352-1.03987-.297-.358899-.681-.539279-1.153-.539279-.427 0-.788.143469-1.079.429749-.291.28628-.452.67-.4839 1.1494zm3.0569 1.50808l.962.11832c-.152.56377-.432 1.00077-.842 1.31187-.412.30924-.936.46502-1.573.46502-.804 0-1.441-.24761-1.9111-.74251-.4712-.49533-.7059-1.19005-.7059-2.08448 0-.92651.238-1.6443.7131-2.155449.4769-.510931 1.0929-.767441 1.8529-.767441.734 0 1.334.251456 1.799.751842.466.500388.699 1.205538.699 2.112718 0 .05657-.002.13973-.006.24926h-4.0959c.0335.60441.2049 1.06789.5119 1.38767.308.3221.689.48281 1.148.48281.341 0 .632-.0903.874-.27035.242-.17873.432-.46512.574-.85928zm-8.9966-3.729094h4.4655v.771176h-1.7696v4.729328h-.9268v-4.729328h-1.7691v-.771176zm-5.3432 0h.9323v2.289804h2.5815v-2.289804h.9305v5.500504h-.9305V38.4117h-2.5815v2.44008h-.9323v-5.500504zm-2.3887 2.738984c-.3391.13974-.846.2564-1.5204.35329-.3832.05504-.6549.11678-.8122.1861-.1588.06877-.2825.1695-.3671.30385-.0868.1326-.1309.27914-.1309.44206 0 .24926.0956.45622.2826.62243.1874.16412.4628.24728.8246.24728.3585 0 .6779-.07766.9571-.23509.2788-.15731.4855-.37317.6162-.64517.1007-.2107.1501-.52181.1501-.93178v-.34297zm.0776 2.08284c-.3458.29332-.6779.50028-.9957.62211-.3198.1204-.6623.18038-1.0278.18038-.6037 0-1.0665-.14688-1.3914-.44194-.3227-.29562-.4855-.67374-.4855-1.13172 0-.27035.0599-.51632.1837-.73877.122-.2229.2825-.40174.4803-.53598.1997-.13435.4219-.23685.6708-.30561.182-.04779.4574-.0958.8263-.13974.7524-.0903 1.3067-.19653 1.6617-.32198.0033-.12721.0055-.20861.0055-.24223 0-.37988-.0886-.64891-.265-.80259-.2368-.211913-.5915-.316494-1.0592-.316494-.4382 0-.7614.076019-.9714.230034-.2083.15369-.3618.42601-.4629.81688l-.9092-.12557c.083-.3891.2193-.705591.4079-.944414.1891-.24058.4645-.426014.8229-.554873.3584-.1294085.7735-.19488156 1.2467-.19488156.4696 0 .8494.05668476 1.1423.16620956.2931.111722.5086.249479.6482.417336.1375.168296.233.378557.2892.634623.0303.15951.0461.44579.0461.85961v1.243c0 .86807.0193 1.41591.06 1.64419.0391.22971.1182.45073.2348.6611h-.9726c-.0957-.19268-.1594-.41887-.1857-.67868zm-5.2972-1.33693l.9148.1204c-.099.631-.3547 1.12622-.768 1.48336-.4113.3568-.918.53565-1.5184.53565-.7508 0-1.3561-.24597-1.8118-.73756-.4574-.49094-.6866-1.19664-.6866-2.1159 0-.59443.0984-1.11404.2946-1.55949.1979-.445683.4964-.779859.8988-1.002863.4008-.222345.8389-.334067 1.3101-.334067.5969 0 1.0861.152478 1.4639.454686.3798.302209.6232.729984.7311 1.286944l-.9059.13973c-.0865-.36933-.2386-.64715-.4574-.83445-.2189-.185543-.4838-.279469-.7944-.279469-.4699 0-.8515.168297-1.1445.505769-.2931.33582-.4394.86807-.4394 1.5964 0 .7391.1409 1.27684.4256 1.61266.2825.33407.6514.50203 1.107.50203.3652 0 .6692-.11337.9144-.33758.2456-.22454.4007-.56948.4661-1.03625zm-12.4464-3.484894h.9307v4.195884l2.5813-4.195884h1.0029v5.500504h-.9307v-4.16907l-2.5816 4.16907h-1.0026v-5.500504zm-8.8621-.000011h.9308v4.195875l2.5815-4.195875h1.0028v5.500505h-.9307V36.6827L89.74 40.85177h-1.0029v-5.500505zm-4.6404.000011h.9307v2.376254c.2969 0 .5051-.05624.6234-.16961.1183-.11502.293-.44535.5244-.99528.1837-.434805.332-.721524.4448-.859171.1148-.138087.2457-.231683.3941-.279579.148-.049545.3866-.072614.7131-.072614h.1873v.771176l-.26-.005492c-.2435 0-.4006.03735-.4694.10952-.0725.07635-.1836.30265-.332.67912-.1413.3589-.2699.60662-.3883.74427-.1165.13973-.2984.26529-.5419.37822.3987.10788.7927.48105 1.1793 1.11953l1.0186 1.70416h-1.0237l-.9943-1.70416c-.203-.34132-.3816-.56751-.5317-.6755-.1517-.10952-.3336-.1628-.5437-.1628v2.54246h-.9307v-5.500504zm-5.3498-.000011h4.4654v.771176h-1.7695v4.729329h-.9268v-4.729329h-1.7691v-.771176zm-5.4158.000011h.9306v4.195884l2.5816-4.195884h1.0026v5.500504h-.9305v-4.16907l-2.5815 4.16907h-1.0028v-5.500504zm-5.7281 0h4.3262v5.500504h-.9269v-4.729328h-2.467v2.740528c0 .63804-.0209 1.06076-.0616 1.26388-.0424.20312-.1555.38196-.3425.534-.1853.15193-.4557.22784-.807.22784-.2172 0-.4679-.01385-.7504-.04241v-.77612h.4095c.1925 0 .3304-.02087.4134-.05998.0831-.04075.1375-.10238.166-.18928.0281-.08656.0403-.36768.0403-.845v-3.624634zm-6.1872-.000011h4.3367v5.500505h-.9323v-4.729329h-2.472v4.729329h-.9324v-5.500505zm-8.7929 0h.9323v2.289805h2.5815v-2.289805h.9307v5.500505h-.9307v-2.44008h-2.5815v2.44008h-.9323v-5.500505zm-5.2862 2.749425c0 .70559.1537 1.23245.4607 1.58256.3073.35175.6941.52675 1.1582.52675.4629 0 .8476-.17676 1.1549-.52851.3057-.35219.4591-.88949.4591-1.61057 0-.68088-.1534-1.19719-.4623-1.5473-.309-.350103-.6922-.5251-1.1517-.5251-.4641 0-.8509.174997-1.1582.52345-.307.34835-.4607.87521-.4607 1.57872zm-.9572.00002c0-1.01835.2827-1.77349.8494-2.262891.4716-.40679 1.0472-.61210756 1.7267-.61210756.7559 0 1.3738.24761156 1.8525.74470156.4805.494897.7185 1.179067.7185 2.052627 0 .709-.1061 1.26607-.3178 1.67066-.2116.40668-.521.72163-.9252.94617-.4061.22411-.8476.33572-1.328.33572-.768 0-1.3893-.24596-1.8642-.74086-.475-.49313-.7119-1.20389-.7119-2.13402zm-5.4982-2.749434h4.3262v5.500504h-.9268v-4.729328h-2.4671v2.740528c0 .63804-.0209 1.06076-.0616 1.26388-.0424.20312-.1555.38196-.3424.534-.1854.15193-.4558.22784-.8071.22784-.2171 0-.4678-.01385-.7504-.04241v-.77612h.4096c.1924 0 .3303-.02087.4134-.05998.083-.04075.1374-.10238.1659-.18928.0281-.08656.0403-.36768.0403-.845v-3.624634zm-2.83879 2.738984c-.33923.13974-.84598.2564-1.52048.35329-.38322.05504-.65486.11678-.81208.1861-.15886.06877-.2825.1695-.3672.30385-.08678.1326-.13077.27914-.13077.44206 0 .24926.09556.45622.2825.62243.18739.16412.46276.24728.82459.24728.35842 0 .6779-.07766.95711-.23509.27878-.15731.48547-.37317.61624-.64517.10061-.2107.15009-.52181.15009-.93178v-.34297zm.07735 2.08283c-.3458.29331-.67779.50028-.99551.62211-.31991.1204-.66243.18038-1.02799.18038-.60362 0-1.06638-.14688-1.39134-.44195-.32277-.29561-.48547-.67373-.48547-1.13171 0-.27035.06001-.51632.18365-.73877.122-.2229.28251-.40174.48042-.53598.19957-.13435.42173-.23685.67066-.30562.18201-.04778.45739-.09579.82634-.13973.75251-.0903 1.30666-.19653 1.66179-.32198.00329-.12721.00538-.20862.00538-.24223 0-.37988-.08843-.64891-.26496-.8026-.23675-.211905-.59145-.316486-1.05925-.316486-.43808 0-.76139.076019-.97138.230036-.20834.15368-.36182.42601-.46287.81687l-.90917-.12556c.08294-.3891.2192-.705592.40791-.944415.18903-.240581.46451-.426015.82293-.554874.35843-.1294079.77335-.194881 1.24665-.194881.46956 0 .84937.0566847 1.1423.166209.29304.111722.50862.249479.64817.417336.13758.168297.23314.378558.28931.634625.03017.15951.04607.44579.04607.85961v1.243c0 .86807.0193 1.41591.0599 1.64419.0391.2297.1183.45073.2348.6611h-.97259c-.09556-.19268-.1593-.41887-.18575-.67868zm-5.29701-1.33691l.91466.1204c-.09885.631-.35459 1.12622-.76798 1.48336-.41119.35681-.91806.53565-1.51839.53565-.75086 0-1.35613-.24596-1.811871-.73756-.457274-.49094-.686569-1.19664-.686569-2.1159 0-.59442.0985201-1.11403.294683-1.55949.197808-.445682.49633-.779858.898747-1.002862.40077-.222345.83885-.33406656 1.31005-.33406656.59694 0 1.08614.15247756 1.46387.45468656.37982.302209.62338.729982.73111 1.286942l-.90588.13973c-.08634-.36933-.23851-.64715-.45738-.83445-.21887-.185542-.48382-.279467-.79441-.279467-.46989 0-.85147.168296-1.14439.505767-.29315.33583-.439395.86807-.439395 1.5964 0 .7391.140865 1.27684.425455 1.61266.28251.33407.65146.50204 1.1072.50204.36512 0 .66902-.11337.91433-.33759.24564-.22454.40066-.56948.46616-1.03625zm41.46195-9.84023V6.284264l2.6376 1.224616 12.0881 5.61211 3.1636 1.46872-2.9749 1.82624-11.1943 6.8721v5.7079h-3.7201zm3.7202-16.86512v6.89782l5.9022-3.60445.9056-.40842-.9532-.2927-5.8546-2.59225zm29.5971 16.84602v-15.4157l-8.3832 5.705v-4.59101l12.0881-8.316424V28.93255l-3.7049.0443zm-14.1918.0265h3.7202V6.408093h-3.7202V29.00335zm56.7994-12.0412v12.0338h-3.72v-11.6173l-6.255-4.21338v15.83068h-3.718V6.164767l2.89 1.947933 8.622 5.80751 9.128-5.83625 2.817-1.801913.031 3.367933.173 19.33117-3.706.0296-.141-15.96343-6.121 3.91483zm-97.0847 13.002L42.9445 12.98541l-5.47934 9.83594-1.01604 1.4074 1.49213-.8287 7.44185-2.3636 1.2641 3.5144-17.8075 5.4979L41.4085 8.42304l1.6018-2.56939 1.5588 2.5989 11.7384 19.5784-3.1825 1.9332zm70.9233-14.66965l8.1034-9.030093 2.935 2.284793-9.0575 9.88315v10.571l-1.9809-.0074-1.98.0074v-10.571l-9.0584-9.88315 2.9354-2.284793 8.103 9.030093zM73.0209 6.853467H50.0975l2.5594 3.749063h7.0521v18.39412h3.7201V10.60253h7.0535l2.5383-3.749063z" clip-rule="evenodd"/>
</svg>
