<svg width="46" height="59" viewBox="0 0 46 59" fill="none" xmlns="http://www.w3.org/2000/svg">
<g filter="url(#filter0_d)">
<path d="M34 16.9722C34 26.3457 17 47 17 47C17 47 0 26.3457 0 16.9722C0 7.59872 7.61116 0 17 0C26.3888 0 34 7.59872 34 16.9722Z" transform="translate(6 5)" fill="white"/>
<path d="M34 16.9722C34 26.3457 17 47 17 47C17 47 0 26.3457 0 16.9722C0 7.59872 7.61116 0 17 0C26.3888 0 34 7.59872 34 16.9722Z" transform="translate(6 5)" stroke="#C0B68B"/>
</g>
<path d="M24.7295 12.6204C24.7295 19.3145 19.3053 24.7407 12.6147 24.7407C5.92417 24.7407 0.5 19.3145 0.5 12.6204C0.5 5.92626 5.92417 0.5 12.6147 0.5C19.3053 0.5 24.7295 5.92626 24.7295 12.6204Z" transform="translate(10.3501 9.35193)" stroke="#C0B68B"/>
<path fill-rule="evenodd" clip-rule="evenodd" d="M3.53222 2.75684H4.02365L3.9157 11.3148H3.04572L3.53222 2.75684ZM5.86407 2.75684H7.00627L7.83003 11.3148H6.09007L5.86407 2.75684ZM1.46459 11.7717H8.14414L8.24279 12.3844L8.24237 12.4932H1.37817V12.3844L1.46459 11.7717ZM3.12043 1.57684H6.45003C6.81421 1.57684 6.95542 1.8948 6.95542 2.23308V2.34922H2.61572V2.23308C2.61572 1.89202 2.73766 1.57684 3.12043 1.57684ZM0.871301 13.0556H8.70114L8.86398 14.6247V14.7962H0.748535V14.6247L0.871301 13.0556ZM2.28975 1.64409V2.80467C2.28975 3.06534 2.08493 3.2765 1.83337 3.2765H0.455725C0.20393 3.2765 0 3.06534 0 2.80467V0.955806C0 0.726949 0.157141 0.53662 0.366419 0.493321C0.531987 0.452806 0.718872 0.411337 0.923879 0.370345C1.10653 0.333686 1.31158 0.29659 1.53613 0.259932C2.61296 0.0828821 3.83984 -0.023833 4.785 0.00455546C4.96831 -0.00116994 5.16404 -0.00116994 5.3682 0.00272651C5.58363 0.00753743 5.79445 0.0162448 5.99796 0.0283715C7.09471 0.0954859 8.31429 0.275279 9.21866 0.498609C9.4279 0.549939 9.56846 0.742774 9.56823 0.955806H9.56981V2.80467C9.56981 3.06534 9.36588 3.2765 9.11381 3.2765H7.73709C7.48484 3.2765 7.28048 3.06534 7.28048 2.80467V1.64409H8.19324V2.33284H8.6572V1.33165C7.85433 1.15942 6.85908 1.02427 5.94428 0.968172C5.72904 0.954653 5.52934 0.945946 5.35023 0.942049C5.16092 0.938392 4.97785 0.938392 4.80474 0.943878H4.80074C4.79143 0.944356 4.78188 0.944355 4.77215 0.944117C3.88151 0.915927 2.71069 1.01879 1.67888 1.18852C1.49134 1.21921 1.29584 1.25516 1.09479 1.2948C1.03427 1.3074 0.973322 1.31997 0.912335 1.33305V2.33284H1.37672V1.64409H2.28975ZM4.6045 2.75684H5.47963L5.65507 11.3148H4.3501L4.6045 2.75684ZM2.5679 2.75684H2.81284L2.61101 11.3148H1.74103L2.5679 2.75684Z" transform="translate(18.18 14.5742)" fill="#C0B68B"/>
<defs>
<filter id="filter0_d" x="0.5" y="0.5" width="45" height="58.2868" filterUnits="userSpaceOnUse" color-interpolation-filters="sRGB">
<feFlood flood-opacity="0" result="BackgroundImageFix"/>
<feColorMatrix in="SourceAlpha" type="matrix" values="0 0 0 0 0 0 0 0 0 0 0 0 0 0 0 0 0 0 255 0"/>
<feOffset dy="1"/>
<feGaussianBlur stdDeviation="2.5"/>
<feColorMatrix type="matrix" values="0 0 0 0 0 0 0 0 0 0 0 0 0 0 0 0 0 0 0.2 0"/>
<feBlend mode="normal" in2="BackgroundImageFix" result="effect1_dropShadow"/>
<feBlend mode="normal" in="SourceGraphic" in2="effect1_dropShadow" result="shape"/>
</filter>
</defs>
</svg>
