<svg xmlns="http://www.w3.org/2000/svg" xmlns:xlink="http://www.w3.org/1999/xlink" version="1.1" id="Layer_1" x="0px" y="0px" viewBox="0 0 18 16.9" enable-background="new 0 0 18 16.9" xml:space="preserve">
<g>
	<g>
		<path fill-rule="evenodd" clip-rule="evenodd" fill="#FFFFFF" d="M14.3,16.4c-0.8,0-3.3-1.8-4.9-3l-0.3-0.3l-0.3,0.3    c-1.6,1.2-4.1,3-4.9,3c-0.4-0.3,0.3-2.9,1.5-5.2l0.2-0.4l-0.4-0.2C3,9.1,0.7,7.2,0.5,6.7c0-0.3,0.3-0.5,0.5-0.5h6l0.1-0.4    c0.5-2.7,1.5-5.2,2-5.3c0.5,0.1,1.5,2.6,2,5.3l0.1,0.4h6c0.1,0.1,0.3,0.3,0.3,0.4c0,0.1-0.1,0.3-0.2,0.4c-0.9,0.9-4.3,3.5-4.3,3.5    l-0.3,0.2l0.2,0.4C13.9,13.5,14.6,16,14.3,16.4L14.3,16.4z"/>
		<path fill="#red" d="M9.1,1.2c0.5,0.8,1.1,2.7,1.5,4.7l0.2,0.8h0.8h5.2c-0.9,0.8-3.3,2.7-4.2,3.3L12,10.5l0.3,0.7    c0.8,1.7,1.4,3.6,1.5,4.5c-0.9-0.4-2.6-1.5-4.1-2.8l-0.6-0.5l-0.6,0.5c-1.6,1.3-3.3,2.4-4.2,2.8C4.3,14.9,5,13,5.8,11.3l0.4-0.8    l-0.7-0.5C3.7,8.9,1.7,7.4,1.1,6.7h5.5h0.8l0.2-0.8C8,3.9,8.6,2,9.1,1.2 M9.1,0C7.8,0,6.6,5.7,6.6,5.7H0.9c0,0-0.9,0.2-0.9,1.1    c0,0.9,4.9,4.1,4.9,4.1s-2.4,5-1.3,5.9c0.1,0.1,0.2,0.1,0.3,0.1c1.3,0,5.2-3.1,5.2-3.1s3.8,3.1,5.2,3.1c0.1,0,0.2,0,0.3-0.1    c1-0.8-1.4-5.9-1.4-5.9s3.4-2.6,4.4-3.5c1-1-0.4-1.6-0.4-1.6h-5.7C11.6,5.7,10.4,0,9.1,0L9.1,0z" style="
    fill: red;
"/>
	</g>
</g>
</svg>