<?xml version="1.0" standalone="no"?>
<!DOCTYPE svg PUBLIC "-//W3C//DTD SVG 1.1//EN" "http://www.w3.org/Graphics/SVG/1.1/DTD/svg11.dtd" >
<svg xmlns="http://www.w3.org/2000/svg">
<metadata>Generated by IcoMoon</metadata>
<defs>
<font id="icomoon" horiz-adv-x="1024">
<font-face units-per-em="1024" ascent="960" descent="-64" />
<missing-glyph horiz-adv-x="1024" />
<glyph unicode="&#x20;" horiz-adv-x="512" d="" />
<glyph unicode="&#xe900;" glyph-name="contacts-clock" d="M622.759 825.835v23.824c0 60.94-49.401 110.341-110.341 110.341s-110.341-49.401-110.341-110.341v0-23.824c-196.023-49.319-341.473-226.952-341.473-438.021 0-249.104 202.71-451.814 451.814-451.814s451.814 202.71 451.814 451.814c0 211.069-145.45 388.702-341.473 438.021zM444.918 849.659c0 37.395 30.315 67.709 67.709 67.709s67.709-30.315 67.709-67.709v0-15.256c-20.349 3.192-43.816 5.016-67.709 5.016s-47.361-1.823-70.271-5.339l2.561 0.323zM533.734-20.741v99.474h-42.632v-99.474c-208.562 10.867-376.372 178.469-387.239 387.239h99.474v42.632h-99.265c10.867 208.562 178.678 376.372 387.239 387.239v-99.474h42.632v99.474c208.562-10.867 376.372-178.469 387.239-387.239h-99.474v-42.632h99.265c-10.658-208.771-178.469-376.372-387.239-387.239zM365.923 651.128l-35.736-23.406 170.736-261.224h180.767v42.632h-157.571l-158.198 241.998z" />
<glyph unicode="&#xe901;" glyph-name="contacts-envelope" d="M0 787.926v-679.218h1024.845v679.218zM512.422 368.402l-420.368 369.062h840.736zM344.993 448.422l-294.532-258.639v517.278zM383.208 414.852l129.214-113.59 129.214 113.59 291.365-255.894h-841.158zM679.852 448.422l294.743 258.639v-517.489z" />
<glyph unicode="&#xe902;" glyph-name="contacts-phone" d="M208.68 279.877c100.916-120.633 222.397-215.612 361.050-282.819 52.79-25.017 123.389-54.698 202.044-59.786 4.876-0.212 9.54-0.424 14.417-0.424 52.79 0 95.192 18.233 129.749 55.758 0.328 0.305 0.609 0.654 0.836 1.039l0.012 0.022c12.296 14.841 26.289 28.197 40.918 42.402 9.964 9.54 20.141 19.505 29.893 29.681 45.158 47.066 45.158 106.852-0.424 152.434l-127.417 127.417c-21.625 22.473-47.49 34.345-74.627 34.345s-53.214-11.872-75.475-34.133l-75.899-75.899c-6.996 4.028-14.205 7.632-20.989 11.024-9.404 4.538-17.043 8.773-24.436 13.366l1.115-0.645c-69.115 43.886-131.869 101.128-191.867 174.695-30.317 38.373-50.67 70.599-64.875 103.46 19.929 18.021 38.586 36.889 56.606 55.334 6.36 6.572 12.933 13.145 19.505 19.717 22.897 22.897 35.193 49.398 35.193 76.323s-12.084 53.426-35.193 76.323l-63.242 63.178c-7.42 7.42-14.417 14.629-21.625 22.049-13.993 14.417-28.621 29.257-43.038 42.614-21.773 21.413-47.426 32.649-74.563 32.649s-52.79-11.236-75.475-32.861l-79.291-79.291c-27.415-26.828-45.385-63.21-48.515-103.752l-0.035-0.557c-4.028-50.67 5.3-104.52 29.469-169.607 37.101-100.704 93.072-194.2 176.179-294.055zM54.762 739.087c2.189 28.429 14.672 53.584 33.683 72.057l0.027 0.026 78.867 78.867c12.296 11.872 25.865 18.021 39.010 18.021s26.077-6.148 38.161-18.445c14.205-13.145 27.561-26.925 41.978-41.554 7.208-7.42 14.629-14.841 22.049-22.473l63.178-63.178c13.145-13.145 19.929-26.501 19.929-39.646s-6.784-26.501-19.929-39.646c-6.572-6.572-13.145-13.357-19.717-19.929-19.717-19.929-38.161-38.798-58.514-56.818l-1.060-1.060c-17.597-17.597-14.841-34.345-10.6-47.066 0.212-0.636 0.424-1.060 0.636-1.696 16.325-39.222 39.010-76.535 74.415-121.057 63.602-78.443 130.597-139.289 204.376-186.143 7.58-4.783 16.747-9.866 26.189-14.473l1.796-0.791c9.404-4.538 17.043-8.773 24.436-13.366l-1.115 0.645c0.848-0.424 1.484-0.848 2.332-1.272 5.947-3.267 13.019-5.22 20.541-5.3h0.024c16.961 0 27.985 10.812 31.589 14.417l79.227 79.291c12.296 12.296 25.653 18.869 38.798 18.869 16.113 0 29.257-9.964 37.525-18.869l127.841-127.629c25.441-25.441 25.229-53.002-0.636-79.927-8.904-9.54-18.233-18.657-28.197-28.197-14.841-14.417-30.317-29.257-44.31-46.006-24.381-26.289-53.426-38.586-90.952-38.586-3.604 0-7.42 0.212-11.024 0.424-69.539 4.452-134.201 31.589-182.751 54.698-131.869 63.814-247.626 154.342-343.665 269.251-79.079 95.192-132.293 183.811-167.487 278.791-21.773 58.302-30.042 105.156-26.649 147.77z" />
<glyph unicode="&#xe903;" glyph-name="contacts-placeholder-1" d="M763.919 855.29c-64.598 64.697-153.893 104.719-252.535 104.719s-187.936-40.022-252.531-104.714l-0.005-0.005c-124.728-124.728-140.896-360.325-33.877-502.761l286.412-413.45 286.412 413.45c107.020 143.206 90.851 378.033-33.877 502.761zM514.464 475.717c-72.287 0-130.887 58.6-130.887 130.887s58.6 130.887 130.887 130.887c72.287 0 130.887-58.6 130.887-130.887v0c0-72.287-58.6-130.887-130.887-130.887v0z" />
<glyph unicode="&#xe904;" glyph-name="contacts-placeholder-2" horiz-adv-x="683" d="M341.4 960c-188.2 0-341.4-153.2-341.4-341.4 0.030-59.428 15.213-115.303 41.893-163.979l-0.893 1.779 281.6-509.4c3.677-6.605 10.618-11 18.585-11 0.005 0 0.011 0 0.016 0h-0.001c0.043 0 0.094-0.001 0.145-0.001 7.93 0 14.833 4.4 18.4 10.892l0.055 0.109 282 509.6c25.689 46.824 40.8 102.6 40.8 161.905 0 0.033 0 0.067 0 0.1v-0.005c0.2 188.4-153 341.4-341.2 341.4zM604.4 477.2l-263-475.6-263 475.6c-22.526 41.003-35.784 89.851-35.8 141.795v0.005c0 164.6 134 298.6 298.6 298.6s298.6-134 298.6-298.6c0.003-0.521 0.005-1.137 0.005-1.754 0-51.312-13.115-99.56-36.175-141.576l0.769 1.53zM341.4 789.4c-94.22 0-170.6-76.38-170.6-170.6s76.38-170.6 170.6-170.6c94.22 0 170.6 76.38 170.6 170.6v0c-0.091 94.183-76.417 170.509-170.591 170.6h-0.009zM341.4 490.8c-70.692 0-128 57.308-128 128s57.308 128 128 128c70.692 0 128-57.308 128-128v0c-0.068-70.665-57.335-127.932-127.993-128h-0.007z" />
<glyph unicode="&#xe905;" glyph-name="dawn_arrow" d="M487.608-54.823c6.482-6.702 15.555-10.862 25.6-10.862s19.118 4.16 25.591 10.852l0.009 0.010 324.106 324.106c6.703 6.572 10.859 15.721 10.859 25.842s-4.155 19.27-10.853 25.836l-0.006 0.006c-6.667 6.495-15.786 10.501-25.842 10.501s-19.174-4.006-25.85-10.508l0.008 0.008-261.796-262.279v865.087c-0.026 20.014-16.257 36.229-36.275 36.229-0.153 0-0.305-0.001-0.458-0.003h0.023c-0.101 0.001-0.22 0.002-0.34 0.002-19.821 0-35.888-16.068-35.888-35.888 0-0.119 0.001-0.239 0.002-0.358v0.018-865.087l-262.279 262.279c-6.57 6.511-15.615 10.534-25.6 10.534-20.089 0-36.375-16.286-36.375-36.375 0-10.105 4.12-19.247 10.772-25.839l0.003-0.003z" />
<glyph unicode="&#xe906;" glyph-name="express-1" horiz-adv-x="513" d="M495.628 789.874h-85.463v153.674c0 5.204-3.403 12.009-6.805 13.61-2.997 1.8-6.614 2.865-10.479 2.865-2.338 0-4.584-0.389-6.679-1.107l0.145 0.043-372.677-169.526c-4.077-0.771-7.55-2.936-9.982-5.972l-0.025-0.033c-2.316-2.73-3.724-6.293-3.724-10.186 0-1.431 0.19-2.817 0.547-4.136l-0.025 0.111v-816.206c0-10.208 6.805-17.013 17.013-17.013h478.155c10.208 0 17.013 6.805 17.013 17.013v819.808c0.2 10.208-6.805 17.053-17.013 17.053zM376.139 916.368v-126.294h-280.068zM478.615-29.935h-444.13v785.543h444.13v-785.583zM393.152 72.501h-273.203c-10.208 0-17.013-6.805-17.013-17.013s6.805-17.013 17.013-17.013h273.203c10.208 0 17.013 6.805 17.013 17.013s-6.805 17.013-17.013 17.013zM324.901 106.727c10.208 0 17.013 6.805 17.013 17.013s-6.805 17.013-17.013 17.013h-136.762c-10.208 0-17.013-6.805-17.013-17.013s6.805-17.013 17.013-17.013zM367.533 540.449c-0.112-0.003-0.245-0.005-0.378-0.005-4.616 0-8.763 2.006-11.618 5.194l-0.013 0.015-5.204 5.204c-6.805 6.805-6.805 17.013-1.801 22.216l37.628 34.225c6.805 6.805 8.606 17.013 1.801 23.818s-17.013 8.606-23.818 1.801l-39.229-35.827c-8.255-9.253-13.299-21.525-13.299-34.975 0-9.997 2.787-19.344 7.626-27.305l-0.132 0.233-62.646-62.646v78.658c0 29.022-20.415 53.039-49.437 56.442l-102.476 12.009c-0.102 0.002-0.222 0.003-0.342 0.003-7.232 0-13.506-4.102-16.621-10.107l-0.049-0.104c-3.403-5.204-1.801-13.61 3.403-18.814l141.705-141.705-107.68-107.68c-3.145-3.002-5.101-7.227-5.101-11.909s1.956-8.907 5.094-11.903l0.006-0.006c3.010-3.208 7.276-5.207 12.009-5.207s8.999 1.999 12.001 5.198l0.008 0.009 107.68 107.68 107.68-107.68c3.010-3.208 7.276-5.207 12.009-5.207s8.999 1.999 12.001 5.198l0.008 0.009c3.145 3.002 5.101 7.227 5.101 11.909s-1.956 8.907-5.094 11.903l-107.686 107.686 62.847 62.847c6.904-4.028 15.198-6.406 24.047-6.406 0.13 0 0.261 0.001 0.391 0.002h-0.020c15.411 0 27.42 5.204 35.827 17.013l35.827 35.827c3.048 3.048 4.933 7.258 4.933 11.909 0 9.301-7.54 16.842-16.842 16.842-4.651 0-8.861-1.885-11.909-4.933l-35.827-35.827c-2.954-3.44-7.309-5.606-12.17-5.606-0.084 0-0.168 0.001-0.252 0.002h0.013zM201.81 571.271c12.009-1.801 20.415-10.208 20.415-22.216v-42.632l-71.653 71.653z" />
<glyph unicode="&#xe907;" glyph-name="express-2" d="M1012.34 808.46c-7.106 7.133-16.938 11.546-27.8 11.546s-20.694-4.414-27.799-11.545l-638.401-638.461-251.2 251.24c-7.069 6.856-16.722 11.083-27.363 11.083-21.716 0-39.32-17.604-39.32-39.32 0-10.64 4.227-20.294 11.092-27.373l278.99-278.99c7.106-7.133 16.938-11.546 27.8-11.546s20.694 4.414 27.799 11.545l666.201 666.201c7.139 7.107 11.556 16.943 11.556 27.81s-4.418 20.703-11.555 27.809l-0.001 0.001z" />
<glyph unicode="&#xe908;" glyph-name="express-3" d="M1023.407 769.902c0 0.516 0.258 0.774 0.258 1.29 0.007 0.191 0.011 0.416 0.011 0.642 0 1.14-0.098 2.257-0.285 3.343l0.017-0.116v1.032c-0.228 1.848-0.87 3.511-1.831 4.941l0.026-0.041c-0.258 0.258-0.258 0.516-0.516 0.774v0.258c-0.029 0.203-0.122 0.381-0.258 0.516v0c-1.036 1.545-2.324 2.833-3.819 3.838l-0.050 0.031c-0.258 0.258-0.774 0.258-1.032 0.516-1.186 0.782-2.547 1.477-3.985 2.017l-0.142 0.047c-0.516 0.258-1.29 0.258-1.806 0.516-0.97 0.171-2.087 0.268-3.227 0.268-0.226 0-0.451-0.004-0.675-0.011l0.033 0.001c-0.102 0.006-0.22 0.010-0.34 0.010-0.616 0-1.209-0.098-1.764-0.279l0.040 0.011h-1.29l-989.179-204.542c-6.944-1.556-12.248-7.12-13.399-14.086l-0.014-0.101c-0.113-0.736-0.178-1.585-0.178-2.449 0-6.537 3.696-12.211 9.112-15.046l0.093-0.045 283.47-149.602 49.781-275.99v-0.516c-0.123-0.62-0.194-1.334-0.194-2.063s0.071-1.443 0.205-2.133l-0.011 0.070c0-0.774 0.258-1.29 0.258-2.063 0.567-1.831 1.18-3.369 1.895-4.848l-0.090 0.205c0.164-0.171 0.265-0.404 0.265-0.66 0-0.040-0.002-0.080-0.007-0.119v0.005l0.258-0.258c0.313-0.289 0.572-0.631 0.764-1.011l0.009-0.020c0.737-0.992 1.588-1.843 2.547-2.556l0.033-0.023c0.258 0 0.258-0.258 0.516-0.516s0.516-0.258 0.774-0.516c0.966-0.714 2.073-1.322 3.258-1.774l0.095-0.032c0.516-0.258 0.774-0.258 1.29-0.516 1.384-0.485 2.979-0.768 4.64-0.774h1.035c4.8 0.045 9.107 2.119 12.111 5.404l0.011 0.013 188.808 125.872 197.836-128.451c2.614-1.751 5.824-2.806 9.278-2.837h0.008c1.931 0.004 3.795 0.287 5.556 0.809l-0.139-0.035c4.947 1.664 8.793 5.426 10.538 10.201l0.037 0.117 238.589 647.416c0.276 0.524 0.461 1.138 0.515 1.788l0.001 0.017c-0.004 0.034-0.007 0.074-0.007 0.114 0 0.256 0.101 0.489 0.265 0.66v0zM826.087 661.312l-409.084-300.752c-0.728-0.474-1.332-1.077-1.791-1.782l-0.014-0.023c-0.258-0.258-0.516-0.258-0.516-0.516s-0.774-0.774-1.032-1.29-0.516-0.774-0.774-1.29l-1.548-3.095c-0.029-0.203-0.122-0.381-0.258-0.516v0-0.258l-46.944-152.439-37.143 206.090zM390.435 166.593l46.428 153.471 92.856-60.357-70.416-46.944zM887.295 730.696l-579.063-296.625-240.988 127.162zM759.617 151.117l-302.299 196.546 513.728 377.874z" />
<glyph unicode="&#xe909;" glyph-name="express-4" d="M1021.197 240.085c-5.795 11.181-17.28 18.69-30.519 18.69-0.084 0-0.168 0-0.252-0.001h-19.844c-8.857 219.108-167.019 398.831-375.068 440.636l-2.994 0.502c0.425 2.523 0.706 5.48 0.777 8.49l0.001 0.076c0 49.673-40.268 89.941-89.941 89.941s-89.941-40.268-89.941-89.941v0c0.073-3.085 0.353-6.043 0.829-8.935l-0.050 0.369c-211.057-42.28-369.234-222.017-378.033-440.224l-0.029-0.914h-1.557c-0.126 0.002-0.275 0.003-0.424 0.003-13.166 0-24.576-7.52-30.168-18.5l-0.089-0.192c-2.419-4.615-3.838-10.081-3.838-15.879 0-7.635 2.461-14.695 6.633-20.43l-0.069 0.1 40.493-56.846c21.954-30.515 57.345-50.168 97.329-50.227h736.666c0.033 0 0.071 0 0.11 0 39.975 0 75.354 19.674 96.984 49.868l0.245 0.359 40.882 56.846c3.732 5.529 5.958 12.343 5.958 19.676 0 6.047-1.513 11.741-4.182 16.724l0.093-0.19zM449.626 705.752v3.115c0 29.89 24.23 54.12 54.12 54.12s54.12-24.23 54.12-54.12v0-3.115c-0.113-0.009-0.245-0.015-0.379-0.015-0.708 0-1.38 0.149-1.989 0.416l0.032-0.012c-6.23 0.779-12.459 1.168-18.689 1.557-2.336 0-4.672 0.389-7.008 0.389-8.566 0.389-17.132 0.779-25.697 0.779s-17.132-0.389-25.697-0.779c-2.336 0-4.672-0.389-7.008-0.389-6.23-0.389-12.459-0.779-18.689-1.557-0.87-0.249-1.868-0.391-2.9-0.391-0.075 0-0.151 0.001-0.226 0.002h0.011zM438.724 667.985c9.734 1.557 19.468 2.336 29.202 3.115 1.947 0 3.894 0.389 5.84 0.389 8.845 0.558 19.181 0.876 29.591 0.876s20.745-0.318 30.998-0.945l-1.407 0.069c1.947 0 3.894-0.389 5.84-0.389 9.734-0.779 19.468-1.947 29.202-3.115 202.922-31.903 357.647-201.191 366.739-408.3l0.032-0.911h-863.197c9.455 208.014 164.215 377.2 364.704 408.891l2.457 0.32zM948.777 168.055c-15.438-21.259-40.179-34.949-68.122-35.042h-736.594c-27.958 0.093-52.699 13.783-67.969 34.799l-0.168 0.243-39.403 54.899h951.191z" />
<glyph unicode="&#xe90a;" glyph-name="left_arrow" d="M10.868 472.392c-6.702-6.482-10.862-15.555-10.862-25.6s4.16-19.118 10.852-25.591l0.010-0.009 324.106-324.106c6.572-6.703 15.721-10.859 25.842-10.859s19.27 4.155 25.836 10.853l0.006 0.006c6.495 6.667 10.501 15.786 10.501 25.842s-4.006 19.174-10.508 25.85l0.008-0.008-262.279 261.796h865.087c20.014 0.026 36.229 16.257 36.229 36.275 0 0.153-0.001 0.305-0.003 0.458v-0.023c0.001 0.101 0.002 0.22 0.002 0.34 0 19.821-16.068 35.888-35.888 35.888-0.119 0-0.239-0.001-0.358-0.002h-865.069l262.279 262.279c6.511 6.57 10.534 15.615 10.534 25.6 0 20.089-16.286 36.375-36.375 36.375-10.105 0-19.247-4.12-25.839-10.772l-0.003-0.003z" />
<glyph unicode="&#xe90b;" glyph-name="logo" d="M37.745 861.444h125.117c75.839 0 127.913-38.793 127.913-106.594 0-72.344-62.558-109.739-134.553-109.739h-92.964v-128.612h-25.513zM157.969 668.876c63.956 0 107.293 33.551 107.293 85.625 0 54.87-42.288 83.178-104.497 83.178h-97.507v-169.152h94.711zM352.633 861.444h144.688c42.288 0 76.188-13.281 97.158-33.9 16.215-16.693 26.212-39.503 26.212-64.647 0-0.126 0-0.252-0.001-0.378v0.020c0-57.666-42.987-90.517-101.002-98.556l113.933-147.484h-32.502l-110.089 142.941h-112.885v-142.941h-25.513zM494.526 682.506c57.666 0 100.303 29.008 100.303 79.683 0 46.482-36.347 75.489-98.905 75.489h-117.777v-155.173zM677.308 689.147c0 94.012 69.548 178.239 173.696 178.239s172.997-83.178 172.997-178.239c0-94.012-69.548-178.239-173.696-178.239s-172.997 83.178-172.997 178.239zM997.439 689.147c0 85.275-62.209 155.173-147.134 155.173s-146.435-68.849-146.435-155.173c0-85.275 62.209-155.173 147.134-155.173s146.435 68.849 146.435 155.173zM0 323.233c0 58.365 44.734 107.992 107.642 107.992 36.347 0 58.714-10.135 80.382-28.309l-23.416-27.61c-16.076 13.63-31.803 22.367-58.365 22.367-38.444 0-67.801-33.551-67.801-74.441 0-42.987 28.309-74.441 70.946-74.441 0.28-0.003 0.61-0.005 0.941-0.005 18.516 0 35.655 5.894 49.643 15.908l-0.258-0.175v39.143h-53.472v31.803h88.77v-87.722c-23.194-20.135-53.665-32.43-87.007-32.502h-0.015c-65.005 0-107.992 46.482-107.992 107.992zM244.991 427.73h92.964c48.928 0 77.586-26.212 77.586-66.403 0-34.25-20.62-54.87-49.977-63.257l56.268-78.984h-43.337l-52.074 72.694h-45.433v-72.694h-36.696v208.644zM335.509 323.932c26.212 0 42.987 13.63 42.987 35.648s-16.076 34.599-43.337 34.599h-53.472v-70.247zM461.324 427.73h154.823v-32.852h-118.127v-54.171h104.846v-32.852h-104.846v-56.268h119.525v-32.852h-156.221zM647.951 249.141l22.018 26.212c19.921-17.474 39.842-27.26 66.053-27.26 22.717 0 37.046 10.485 37.046 26.911 0 15.028-8.388 23.066-47.181 32.153-44.385 10.485-69.548 23.416-69.548 62.558 0 35.648 29.706 60.461 71.296 60.461 0.748 0.017 1.629 0.027 2.513 0.027 27.928 0 53.543-9.906 73.522-26.396l-0.196 0.157-19.571-27.61c-18.872 13.98-37.745 21.319-56.617 21.319-21.319 0-33.9-11.184-33.9-25.513 0-16.076 9.436-23.416 49.627-32.852 44.035-10.834 67.102-26.561 67.102-61.859 0-39.143-30.755-62.209-74.441-62.209-33.811 0.109-64.599 12.96-87.833 34l0.112-0.1zM837.723 249.141l22.018 26.212c19.921-17.474 39.842-27.26 66.053-27.26 22.717 0 37.046 10.485 37.046 26.911 0 15.028-8.388 23.066-47.181 32.153-44.734 10.485-69.898 23.765-69.898 62.908 0 35.648 29.706 60.461 71.296 60.461 0.748 0.017 1.629 0.027 2.513 0.027 27.928 0 53.543-9.906 73.522-26.396l-0.196 0.157-19.571-27.61c-18.872 13.98-37.745 21.319-56.617 21.319-21.319 0-33.9-11.184-33.9-25.513 0-16.076 9.436-23.416 49.627-32.852 44.035-10.834 67.102-26.561 67.102-61.859 0-39.143-30.755-62.209-74.441-62.209-0.224-0.001-0.49-0.002-0.755-0.002-33.415 0-63.852 12.746-86.716 33.642l0.099-0.089zM29.008 108.647h5.941v-13.281c5.242 8.038 12.931 15.028 24.814 15.028 14.678 0 29.357-11.533 29.357-31.454 0.022-0.43 0.035-0.933 0.035-1.44 0-16.359-13.084-29.662-29.359-30.014l-0.033-0.001c-10.501 0.186-19.645 5.825-24.74 14.198l-0.074 0.131v-31.803h-5.941zM82.479 78.591c0 15.727-10.834 25.862-23.416 25.862-13.807-0.738-24.722-12.112-24.722-26.037s10.916-25.299 24.657-26.034l0.065-0.003c12.931 0.349 23.416 9.786 23.416 26.212zM200.956 108.647h5.941v-17.125c4.289 10.698 14.552 18.126 26.555 18.173h0.006v-6.291h-0.699c-13.98 0-26.212-10.485-26.212-30.056v-24.814h-5.941v60.112zM338.304 78.591c0.295 16.855 14.028 30.405 30.925 30.405 17.082 0 30.93-13.848 30.93-30.93s-13.848-30.93-30.93-30.93c-0.060 0-0.12 0-0.179 0.001h0.009c-17.020 0.157-30.758 13.991-30.758 31.033 0 0.148 0.001 0.296 0.003 0.443v-0.022zM393.873 78.591c0.007 0.221 0.011 0.481 0.011 0.742 0 13.841-11.037 25.105-24.791 25.469l-0.034 0.001c-13.828-0.825-24.729-12.241-24.729-26.203 0-14.085 11.094-25.578 25.021-26.218l0.058-0.002c13.646 0.63 24.472 11.847 24.472 25.592 0 0.218-0.003 0.435-0.008 0.652l0.001-0.032zM501.166 29.663v5.242c1.227-0.231 2.638-0.364 4.080-0.364 0.286 0 0.57 0.005 0.853 0.015l-0.041-0.001c4.194 0 7.339 2.796 7.339 8.388v65.704h5.941v-65.354c0-9.436-5.242-13.98-12.931-13.98-0.294-0.012-0.638-0.020-0.985-0.020-1.505 0-2.978 0.134-4.408 0.391l0.15-0.022zM512.349 132.063h7.339v-8.038h-7.339zM631.874 78.591c0 17.474 12.232 31.454 28.658 31.454s27.61-13.63 27.61-31.454v-2.446h-49.977c1.048-15.028 11.883-23.765 23.416-23.765 0.046 0 0.1 0 0.154 0 8.176 0 15.5 3.646 20.435 9.4l0.030 0.036 3.844-3.495c-5.808-6.864-14.428-11.193-24.059-11.193-0.265 0-0.53 0.003-0.794 0.010l0.039-0.001c-15.727 0-29.357 12.582-29.357 31.454zM681.502 81.387c-0.699 12.232-7.689 23.416-21.668 23.416-11.883 0-20.969-10.135-22.018-23.416zM794.736 78.591c-0.002 0.146-0.004 0.318-0.004 0.49 0 17.029 13.746 30.847 30.748 30.964h0.011c9.642-0.021 18.272-4.339 24.078-11.14l0.037-0.044-3.844-4.194c-5.242 5.242-11.184 9.786-19.921 9.786-13.281 0-24.115-11.533-24.115-26.212-0.012-0.293-0.019-0.636-0.019-0.982 0-13.795 11.070-25.005 24.812-25.23h0.021c8.086 0.303 15.209 4.176 19.878 10.080l0.042 0.056 4.194-3.844c-5.694-7.261-14.466-11.883-24.318-11.883-0.051 0-0.103 0-0.154 0h0.008c-17.426 0.255-31.455 14.442-31.455 31.905 0 0.087 0 0.174 0.001 0.261v-0.013zM963.888 63.913v39.492h-8.737v5.242h8.737v19.222h5.941v-19.222h20.969v-5.242h-20.969v-38.793c0-8.737 5.242-11.533 11.883-11.533 3.19 0.074 6.185 0.84 8.862 2.152l-0.125-0.055v-5.592c-2.77-1.325-6.021-2.099-9.453-2.099-0.117 0-0.234 0.001-0.35 0.003h0.018c-9.436 0-16.775 4.893-16.775 16.426z" />
<glyph unicode="&#xe90c;" glyph-name="long_arrow_dawn" d="M676.356 99.496h-131.657v860.504h-64.538v-860.504h-131.657l163.926-163.926 163.926 163.926z" />
<glyph unicode="&#xe90d;" glyph-name="right_arrow" d="M690.717 796.981c-6.594 6.655-15.737 10.775-25.842 10.775-20.089 0-36.375-16.286-36.375-36.375 0-9.985 4.023-19.030 10.536-25.603l262.276-262.276h-865.087c-0.101 0.001-0.22 0.002-0.34 0.002-19.821 0-35.888-16.068-35.888-35.888 0-0.119 0.001-0.239 0.002-0.358v0.018c-0.002-0.129-0.003-0.282-0.003-0.435 0-20.018 16.215-36.249 36.227-36.275h865.090l-262.279-261.796c-6.495-6.667-10.501-15.786-10.501-25.842s4.006-19.174 10.508-25.85l-0.008 0.008c6.572-6.703 15.721-10.859 25.842-10.859s19.27 4.155 25.836 10.853l324.112 324.353c6.702 6.482 10.862 15.555 10.862 25.6s-4.16 19.118-10.852 25.591l-0.010 0.009z" />
<glyph unicode="&#xe90e;" glyph-name="up_arrow" d="M538.566 949.132c-6.482 6.702-15.555 10.862-25.6 10.862s-19.118-4.16-25.591-10.852l-0.009-0.010-324.347-324.106c-6.703-6.572-10.859-15.721-10.859-25.842s4.155-19.27 10.853-25.836l0.006-0.006c6.667-6.495 15.786-10.501 25.842-10.501s19.174 4.006 25.85 10.508l-0.008-0.008 261.796 262.279v-865.087c0.026-20.014 16.257-36.229 36.275-36.229 0.153 0 0.305 0.001 0.458 0.003h-0.023c0.101-0.001 0.22-0.002 0.34-0.002 19.821 0 35.888 16.068 35.888 35.888 0 0.119-0.001 0.239-0.002 0.358v-0.018 865.087l262.279-262.279c6.57-6.511 15.615-10.534 25.6-10.534 20.089 0 36.375 16.286 36.375 36.375 0 10.105-4.12 19.247-10.772 25.839l-0.003 0.003z" />
<glyph unicode="&#xe90f;" glyph-name="vk2" d="M546.133 140.8c34.133 0 34.133 49.152 34.133 68.267 2.553 36.63 31.637 65.714 68.036 68.254l0.231 0.013c34.133 0 92.843-58.709 136.533-102.4 34.133-34.133 34.133-34.133 68.267-34.133h102.4c37.703 0 68.267 30.564 68.267 68.267v0c0 21.163-23.211 57.344-102.4 136.533-68.267 68.267-102.4 34.133 0 170.667 62.805 83.968 108.544 159.744 102.4 181.589s-182.613 54.272-204.8 23.211c-35.367-49.046-69.397-104.925-99.055-163.396l-3.345-7.271c-34.133-68.267-37.547-102.4-68.267-102.4s-34.133 66.219-34.133 102.4c0 112.981 16.384 192.512-34.133 204.8h-102.4c-38.437-1.827-73.624-14.324-103.071-34.569l0.671 0.436s-40.96-34.133-34.133-34.133 68.267 13.995 68.267-34.133v-68.267s0-136.533-34.133-136.533-102.4 136.533-170.667 238.933c-25.259 40.277-34.133 34.133-68.267 34.133s-68.267 0-102.4 0-38.571-21.845-34.133-34.133c68.267-170.667 117.419-277.845 247.125-413.013 119.125-123.904 198.315-130.389 264.875-133.12 18.432 0 0 0 34.133 0z" />
<glyph unicode="&#xe910;" glyph-name="twitter2" d="M1024 748.032c-39.405-19.207-85.164-34.474-133.127-43.499l-3.407-0.533c47.065 33.407 82.739 80.102 101.81 134.597l0.59 1.936c-31.608-21.546-67.81-41.737-105.796-58.645l-4.455-1.771-26.283 26.283c-31.949 41.053-81.077 67.436-136.398 68.265l-0.135 0.002c-1.024 0.019-2.232 0.029-3.443 0.029-111.223 0-201.387-90.164-201.387-201.387 0-1.211 0.011-2.419 0.032-3.624l-0.003 0.181c-0.018-0.806-0.028-1.756-0.028-2.708 0-11.155 1.379-21.989 3.976-32.339l-0.194 0.913h-3.755c-204.8 0-341.333 43.691-443.733 170.667-19.636-28.838-32.1-63.981-34.112-101.897l-0.021-0.503c3.736-72.454 43.434-134.879 101.463-170.138l0.937-0.529c-38.291 4.111-73.033 16.273-103.513 34.76l1.113-0.627c0-102.4 143.019-219.477 238.933-238.933-34.133-34.133-157.696-2.389-170.667 0 31.688-80.597 108.832-136.611 199.060-136.611 2.019 0 4.031 0.028 6.036 0.084l-0.295-0.006c-68.287-53.464-155.407-85.734-250.064-85.734-2.447 0-4.889 0.022-7.326 0.065l0.366-0.005c-0.334-0.001-0.73-0.001-1.125-0.001-17.282 0-34.332 0.993-51.096 2.924l2.045-0.192c94.257-55.232 207.565-87.848 328.491-87.848 4.516 0 9.021 0.045 13.515 0.136l-0.673-0.011c386.389 0 580.267 302.763 580.267 580.267 0 9.216 0 25.259 0 34.133 40.384 31.29 74.393 68.45 101.356 110.555l1.044 1.743z" />
<glyph unicode="&#xe911;" glyph-name="odnoklassniki" d="M750.933 448c-34.133 0-102.4-68.267-238.933-68.267s-204.8 68.267-238.933 68.267c-37.703 0-68.267-30.564-68.267-68.267v0c-0.022-0.632-0.035-1.375-0.035-2.12 0-24.522 13.681-45.848 33.827-56.761l0.341-0.169c40.619-23.893 170.667-77.483 170.667-77.483l-145.067-185.685c-12.375-14.716-21.348-32.701-25.464-52.468l-0.136-0.78c0-37.703 30.564-68.267 68.267-68.267v0c0.684-0.027 1.486-0.042 2.293-0.042 19.332 0 36.624 8.735 48.145 22.472l0.080 0.097s154.283 182.272 154.283 182.272 154.283-182.272 154.283-182.272c11.6-13.835 28.893-22.57 48.225-22.57 0.806 0 1.609 0.015 2.408 0.045l-0.115-0.003c37.703 0 68.267 30.564 68.267 68.267v0c-4.252 20.547-13.225 38.532-25.75 53.432l0.15-0.184-145.067 185.685s130.389 53.589 170.667 77.483c20.487 11.082 34.168 32.409 34.168 56.93 0 0.746-0.013 1.488-0.038 2.228l0.003-0.108c0 37.703-30.564 68.267-68.267 68.267v0zM512 960c-131.959 0-238.933-106.974-238.933-238.933s106.974-238.933 238.933-238.933c131.959 0 238.933 106.974 238.933 238.933v0c0 131.959-106.974 238.933-238.933 238.933v0zM512 601.6c-65.98 0-119.467 53.487-119.467 119.467s53.487 119.467 119.467 119.467c65.98 0 119.467-53.487 119.467-119.467v0c0-65.98-53.487-119.467-119.467-119.467v0z" />
<glyph unicode="&#xe912;" glyph-name="insta" d="M887.467 960h-768c-65.747-0.574-118.892-53.719-119.466-119.412v-785.122c0-65.98 53.487-119.467 119.467-119.467v0h785.067c65.152 2.018 117.448 54.315 119.462 119.278l0.005 0.189v785.067c0 63.829-73.045 117.077-136.533 119.467zM512 635.733c103.682 0 187.733-84.051 187.733-187.733s-84.051-187.733-187.733-187.733c-103.682 0-187.733 84.051-187.733 187.733v0c0 103.682 84.051 187.733 187.733 187.733v0zM887.467 140.8c0-37.703-30.564-68.267-68.267-68.267v0h-614.4c-37.703 0-68.267 30.564-68.267 68.267v0 392.533h80.555c-7.799-25.759-12.288-55.363-12.288-86.016 0-169.662 137.538-307.2 307.2-307.2s307.2 137.538 307.2 307.2c0 30.653-4.489 60.257-12.847 88.191l0.559-2.175h80.555v-392.533s0 0 0 0zM887.467 789.333v-102.4c0-18.851-15.282-34.133-34.133-34.133v0h-102.4c-18.851 0-34.133 15.282-34.133 34.133v0 0 102.4c0 18.851 15.282 34.133 34.133 34.133v0h102.4c18.851 0 34.133-15.282 34.133-34.133v0 0z" />
<glyph unicode="&#xe913;" glyph-name="fb" d="M750.933 413.867l34.133 170.667h-170.667v136.533c0 52.565 26.624 68.267 102.4 68.267h68.267v170.667h-136.533c-138.923 0-238.933-82.944-238.933-238.933v-136.533h-170.667v-170.667h170.667v-477.867h204.8v477.867z" />
<glyph unicode="&#xe914;" glyph-name="crosses" d="M15.872 944.128l-15.872-16.128 480-480-480-480 15.872-16.128 16.128-15.872 480 480 480-480 16.128 15.872 15.872 16.128-480 480 480 480-15.872 16.128-16.128 15.872-480-480-480 480z" />
<glyph unicode="&#xea91;" glyph-name="facebook" d="M928 960h-832c-52.8 0-96-43.2-96-96v-832c0-52.8 43.2-96 96-96h416v448h-128v128h128v64c0 105.8 86.2 192 192 192h128v-128h-128c-35.2 0-64-28.8-64-64v-64h192l-32-128h-160v-448h288c52.8 0 96 43.2 96 96v832c0 52.8-43.2 96-96 96z" />
<glyph unicode="&#xea92;" glyph-name="instagram" d="M512 867.8c136.8 0 153-0.6 206.8-3 50-2.2 77-10.6 95-17.6 23.8-9.2 41-20.4 58.8-38.2 18-18 29-35 38.4-58.8 7-18 15.4-45.2 17.6-95 2.4-54 3-70.2 3-206.8s-0.6-153-3-206.8c-2.2-50-10.6-77-17.6-95-9.2-23.8-20.4-41-38.2-58.8-18-18-35-29-58.8-38.4-18-7-45.2-15.4-95-17.6-54-2.4-70.2-3-206.8-3s-153 0.6-206.8 3c-50 2.2-77 10.6-95 17.6-23.8 9.2-41 20.4-58.8 38.2-18 18-29 35-38.4 58.8-7 18-15.4 45.2-17.6 95-2.4 54-3 70.2-3 206.8s0.6 153 3 206.8c2.2 50 10.6 77 17.6 95 9.2 23.8 20.4 41 38.2 58.8 18 18 35 29 58.8 38.4 18 7 45.2 15.4 95 17.6 53.8 2.4 70 3 206.8 3zM512 960c-139 0-156.4-0.6-211-3-54.4-2.4-91.8-11.2-124.2-23.8-33.8-13.2-62.4-30.6-90.8-59.2-28.6-28.4-46-57-59.2-90.6-12.6-32.6-21.4-69.8-23.8-124.2-2.4-54.8-3-72.2-3-211.2s0.6-156.4 3-211c2.4-54.4 11.2-91.8 23.8-124.2 13.2-33.8 30.6-62.4 59.2-90.8 28.4-28.4 57-46 90.6-59 32.6-12.6 69.8-21.4 124.2-23.8 54.6-2.4 72-3 211-3s156.4 0.6 211 3c54.4 2.4 91.8 11.2 124.2 23.8 33.6 13 62.2 30.6 90.6 59s46 57 59 90.6c12.6 32.6 21.4 69.8 23.8 124.2 2.4 54.6 3 72 3 211s-0.6 156.4-3 211c-2.4 54.4-11.2 91.8-23.8 124.2-12.6 34-30 62.6-58.6 91-28.4 28.4-57 46-90.6 59-32.6 12.6-69.8 21.4-124.2 23.8-54.8 2.6-72.2 3.2-211.2 3.2v0zM512 711c-145.2 0-263-117.8-263-263s117.8-263 263-263 263 117.8 263 263c0 145.2-117.8 263-263 263zM512 277.4c-94.2 0-170.6 76.4-170.6 170.6s76.4 170.6 170.6 170.6c94.2 0 170.6-76.4 170.6-170.6s-76.4-170.6-170.6-170.6zM846.8 721.4c0-33.91-27.49-61.4-61.4-61.4s-61.4 27.49-61.4 61.4c0 33.91 27.49 61.4 61.4 61.4s61.4-27.49 61.4-61.4z" />
<glyph unicode="&#xea96;" glyph-name="twitter" d="M1024 733.6c-37.6-16.8-78.2-28-120.6-33 43.4 26 76.6 67.2 92.4 116.2-40.6-24-85.6-41.6-133.4-51-38.4 40.8-93 66.2-153.4 66.2-116 0-210-94-210-210 0-16.4 1.8-32.4 5.4-47.8-174.6 8.8-329.4 92.4-433 219.6-18-31-28.4-67.2-28.4-105.6 0-72.8 37-137.2 93.4-174.8-34.4 1-66.8 10.6-95.2 26.2 0-0.8 0-1.8 0-2.6 0-101.8 72.4-186.8 168.6-206-17.6-4.8-36.2-7.4-55.4-7.4-13.6 0-26.6 1.4-39.6 3.8 26.8-83.4 104.4-144.2 196.2-146-72-56.4-162.4-90-261-90-17 0-33.6 1-50.2 3 93.2-59.8 203.6-94.4 322.2-94.4 386.4 0 597.8 320.2 597.8 597.8 0 9.2-0.2 18.2-0.6 27.2 41 29.4 76.6 66.4 104.8 108.6z" />
<glyph unicode="&#xea98;" glyph-name="vk" d="M928 960h-832c-52.8 0-96-43.2-96-96v-832c0-52.8 43.2-96 96-96h832c52.8 0 96 43.2 96 96v832c0 52.8-43.2 96-96 96zM829.4 243.2l-93.6-1.4c0 0-20.2-4-46.6 14.2-35 24-68 86.6-93.8 78.4-26-8.2-25.2-64.4-25.2-64.4s0.2-12-5.8-18.4c-6.4-7-19.2-8.4-19.2-8.4h-41.8c0 0-92.4-5.6-173.8 79.2-88.8 92.4-167.2 275.8-167.2 275.8s-4.6 12 0.4 17.8c5.6 6.6 20.6 7 20.6 7l100.2 0.6c0 0 9.4-1.6 16.2-6.6 5.6-4 8.6-11.8 8.6-11.8s16.2-41 37.6-78c41.8-72.2 61.4-88 75.6-80.4 20.6 11.2 14.4 102.2 14.4 102.2s0.4 33-10.4 47.6c-8.4 11.4-24.2 14.8-31 15.6-5.6 0.8 3.6 13.8 15.6 19.8 18 8.8 49.8 9.4 87.4 9 29.2-0.2 37.8-2.2 49.2-4.8 34.6-8.4 22.8-40.6 22.8-117.8 0-24.8-4.4-59.6 13.4-71 7.6-5 26.4-0.8 73.4 79 22.2 37.8 39 82.2 39 82.2s3.6 8 9.2 11.4c5.8 3.4 13.6 2.4 13.6 2.4l105.4 0.6c0 0 31.6 3.8 36.8-10.6 5.4-15-11.8-50-54.8-107.4-70.6-94.2-78.6-85.4-19.8-139.8 56-52 67.6-77.4 69.6-80.6 22.8-38.4-26-41.4-26-41.4z" />
</font>
</defs>
</svg>
